<svg width="170" height="100" viewBox="0 0 170 100" fill="none" xmlns="http://www.w3.org/2000/svg">
<path d="M74.4637 12.3279C74.4637 12.615 74.4637 12.9128 74.4962 13.2107C74.5233 13.6493 74.5558 14.0663 74.5991 14.4779C74.639 14.8634 74.6987 15.2465 74.7778 15.6259C74.8413 15.94 74.9319 16.2481 75.0486 16.5466C75.099 16.7158 75.1901 16.8701 75.3139 16.996C75.4576 17.0943 75.6169 17.1675 75.7851 17.2127C76.0071 17.2776 76.2941 17.348 76.6407 17.4184C76.9873 17.4888 77.3393 17.543 77.6913 17.5971L78.639 17.7217C78.9152 17.7542 79.0993 17.7759 79.1805 17.7759C79.2735 17.7757 79.3655 17.7573 79.4513 17.7217C79.4868 17.7079 79.517 17.6832 79.5375 17.651C79.5579 17.6189 79.5676 17.581 79.565 17.543C79.568 17.5011 79.5601 17.4591 79.5421 17.4212C79.524 17.3832 79.4965 17.3505 79.4621 17.3264C79.3325 17.2652 79.1933 17.2267 79.0506 17.2127C78.7598 17.1426 78.4781 17.039 78.2112 16.904C77.9032 16.7683 77.6182 16.5856 77.3664 16.3624C76.7886 15.8823 76.3804 15.2292 76.202 14.4995C76.0202 13.6598 75.9312 12.8026 75.9367 11.9435C75.4306 12.0246 74.9348 12.1608 74.4583 12.3496L74.4637 12.3279ZM76.7544 8.40176C77.1314 7.65426 77.6188 6.96781 78.2003 6.36555C79.017 5.53609 79.9836 4.86904 81.0488 4.39975C83.6021 3.34901 86.4671 3.34901 89.0204 4.39975C90.0882 4.86717 91.0569 5.53441 91.8743 6.36555C92.6037 7.11501 93.1796 7.99989 93.5693 8.97037C93.9215 9.82996 94.1053 10.7492 94.1109 11.6781C94.1317 12.6221 94.0427 13.5653 93.8455 14.4887C93.6671 15.2184 93.259 15.8715 92.6812 16.3516C92.4293 16.5748 92.1443 16.7575 91.8364 16.8931C91.5691 17.0273 91.2875 17.1308 90.997 17.2018C90.8543 17.2159 90.7151 17.2543 90.5854 17.3155C90.5502 17.3389 90.5221 17.3714 90.5039 17.4096C90.4858 17.4478 90.4784 17.4901 90.4825 17.5322C90.4799 17.5702 90.4896 17.608 90.5101 17.6402C90.5305 17.6723 90.5607 17.6971 90.5962 17.7109C90.6821 17.7465 90.7741 17.7649 90.867 17.765C90.9537 17.765 91.1378 17.765 91.4086 17.7109L92.3563 17.5863C92.7028 17.5322 93.0549 17.4726 93.4014 17.4076C93.748 17.3426 94.0405 17.2668 94.2625 17.2018C94.4306 17.1567 94.5899 17.0835 94.7336 16.9852C94.8574 16.8593 94.9485 16.7049 94.999 16.5357C95.1156 16.2372 95.2062 15.9292 95.2698 15.6151C95.3489 15.2357 95.4085 14.8525 95.4485 14.467C95.4918 14.0555 95.5243 13.6385 95.5514 13.1998C95.5785 12.7612 95.5893 12.3442 95.5893 11.938C95.6053 10.31 95.3939 8.68779 94.9611 7.1183C94.5366 5.65972 93.7971 4.31206 92.7949 3.17045C92.2847 2.57375 91.6942 2.0507 91.0403 1.61623C90.4431 1.21489 89.7994 0.887557 89.1232 0.641439C88.4864 0.409622 87.8278 0.242712 87.1575 0.143229C85.7197 -0.0477429 84.2629 -0.0477429 82.8251 0.143229C82.1548 0.242712 81.4961 0.409622 80.8593 0.641439C80.1832 0.887557 79.5395 1.21489 78.9422 1.61623C78.2883 2.0507 77.6979 2.57375 77.1877 3.17045C76.1855 4.31206 75.446 5.65972 75.0215 7.1183C74.8915 7.56778 74.7832 8.0335 74.6911 8.51006C75.3572 8.43424 76.0233 8.40175 76.6894 8.39092L76.7544 8.40176Z" fill="white"/>
<path d="M77.3989 30.551L78.2816 30.5185C78.7148 30.4914 79.1372 30.4589 79.5488 30.4156C79.9343 30.3756 80.3175 30.316 80.6969 30.2369C81.0107 30.1749 81.3188 30.0861 81.6175 29.9715C81.7859 29.9164 81.9396 29.8239 82.067 29.7007C82.1663 29.5576 82.2396 29.3981 82.2836 29.2296C82.3486 29.0076 82.419 28.7205 82.484 28.374C82.5489 28.0274 82.6139 27.6754 82.6627 27.3234C82.7114 26.9714 82.7601 26.6627 82.7926 26.3811C82.8251 26.0995 82.8414 25.9153 82.8414 25.8395C82.8436 25.7487 82.8269 25.6583 82.7926 25.5742C82.779 25.5381 82.7545 25.5072 82.7224 25.4859C82.6904 25.4645 82.6524 25.4537 82.6139 25.455C82.572 25.4521 82.53 25.46 82.4921 25.478C82.4541 25.496 82.4215 25.5236 82.3973 25.5579C82.3361 25.6876 82.2976 25.8268 82.2836 25.9695C82.2103 26.2611 82.1068 26.5442 81.9749 26.8143C81.838 27.1199 81.6554 27.403 81.4334 27.6537C80.9533 28.2315 80.3002 28.6396 79.5704 28.818C78.7307 28.9999 77.8735 29.0889 77.0144 29.0834C77.0948 29.5896 77.2311 30.0855 77.4205 30.5618L77.3989 30.551ZM73.4727 28.2602C72.7252 27.8832 72.0387 27.3958 71.4365 26.8143C70.602 26.0007 69.9326 25.0334 69.4653 23.9658C68.4204 21.4113 68.4204 18.5487 69.4653 15.9943C69.9326 14.9266 70.602 13.9594 71.4365 13.1457C72.1848 12.4136 73.0699 11.8358 74.0413 11.4453C74.9017 11.0957 75.8204 10.912 76.749 10.9038C77.6932 10.8844 78.6365 10.9752 79.5596 11.1745C80.2889 11.3507 80.9421 11.7571 81.4225 12.3334C81.6457 12.5853 81.8284 12.8703 81.9641 13.1783C82.096 13.4484 82.1994 13.7315 82.2727 14.0231C82.2865 14.1641 82.325 14.3016 82.3865 14.4292C82.4098 14.4644 82.4424 14.4926 82.4805 14.5107C82.5187 14.5288 82.561 14.5362 82.6031 14.5321C82.6411 14.5347 82.679 14.525 82.7111 14.5046C82.7433 14.4841 82.768 14.4539 82.7818 14.4184C82.816 14.3323 82.8325 14.2402 82.8305 14.1476C82.8305 14.0664 82.8305 13.8823 82.7818 13.6061C82.7331 13.3299 82.706 13.0104 82.6518 12.6584C82.5977 12.3064 82.5435 11.9598 82.4731 11.6132C82.421 11.3247 82.3541 11.0392 82.2727 10.7576C82.2288 10.589 82.1554 10.4295 82.0561 10.2864C81.9308 10.1607 81.7764 10.0677 81.6067 10.0156C81.3073 9.9015 80.9995 9.81097 80.686 9.74486C80.3066 9.66577 79.9234 9.60613 79.538 9.56616C79.1264 9.52283 78.704 9.49034 78.2708 9.46326C77.8375 9.43619 77.4151 9.42535 77.0089 9.42535C75.381 9.40929 73.7587 9.62073 72.1892 10.0535C70.7288 10.4737 69.3803 11.2137 68.2414 12.2197C67.6434 12.7281 67.1185 13.3168 66.6817 13.9689C66.2862 14.5687 65.961 15.2119 65.7124 15.886C65.4781 16.522 65.3111 17.1809 65.2141 17.8518C65.0232 19.2896 65.0232 20.7463 65.2141 22.1841C65.3104 22.8569 65.4774 23.5176 65.7124 24.1553C65.961 24.8294 66.2862 25.4726 66.6817 26.0724C67.1214 26.7223 67.6459 27.3106 68.2414 27.8216C69.3803 28.8276 70.7288 29.5675 72.1892 29.9877C72.6387 30.1123 73.1044 30.2206 73.581 30.3127C73.5062 29.6491 73.4665 28.9821 73.4618 28.3144L73.4727 28.2602Z" fill="white"/>
<path d="M95.611 27.6049C95.611 27.3179 95.611 27.0255 95.5785 26.7222C95.5514 26.289 95.5189 25.8666 95.4756 25.455C95.4356 25.0695 95.376 24.6863 95.2969 24.3069C95.2333 23.9928 95.1427 23.6848 95.0261 23.3863C94.9763 23.2184 94.885 23.0657 94.7607 22.9422C94.6189 22.8407 94.459 22.7672 94.2896 22.7256C94.0087 22.6402 93.723 22.5715 93.434 22.5198C93.082 22.4494 92.7354 22.3899 92.3834 22.3411C92.0314 22.2924 91.7173 22.2491 91.4411 22.2112C91.1649 22.1733 90.9753 22.1624 90.8995 22.1624C90.8087 22.1602 90.7183 22.1768 90.6342 22.2112C90.5981 22.2247 90.5672 22.2493 90.5459 22.2813C90.5245 22.3134 90.5137 22.3514 90.515 22.3899C90.5115 22.4318 90.5192 22.474 90.5373 22.5121C90.5553 22.5501 90.5832 22.5827 90.6179 22.6065C90.748 22.6676 90.8869 22.7078 91.0295 22.7256C91.3202 22.7935 91.6019 22.8953 91.8689 23.0289C92.1759 23.1663 92.4606 23.3489 92.7137 23.5704C93.2915 24.0505 93.6997 24.7036 93.878 25.4333C94.0598 26.2749 94.1488 27.1339 94.1434 27.9948C94.6493 27.91 95.1448 27.772 95.6218 27.5833L95.611 27.6049ZM93.3202 31.5311C92.9434 32.2803 92.456 32.9685 91.8743 33.5727C91.0576 34.4022 90.091 35.0692 89.0258 35.5385C86.4714 36.5834 83.6087 36.5834 81.0543 35.5385C79.9871 35.0698 79.0186 34.4027 78.2004 33.5727C77.4724 32.82 76.8968 31.9337 76.5053 30.9625C76.1547 30.1024 75.9709 29.1835 75.9638 28.2548C75.9435 27.3108 76.0326 26.3677 76.2291 25.4442C76.4096 24.7153 76.8174 24.0629 77.3934 23.5813C77.6465 23.3597 77.9313 23.1772 78.2383 23.0397C78.5071 22.906 78.7906 22.8043 79.0831 22.7365C79.2238 22.718 79.3608 22.6778 79.4892 22.6173C79.5249 22.5944 79.5534 22.5619 79.5715 22.5237C79.5897 22.4854 79.5969 22.4428 79.5921 22.4007C79.5931 22.363 79.5828 22.3258 79.5625 22.294C79.5423 22.2621 79.513 22.2371 79.4784 22.222C79.3923 22.1878 79.3002 22.1712 79.2076 22.1732C79.121 22.1732 78.9423 22.1732 78.6661 22.222C78.3899 22.2707 78.0704 22.2978 77.7184 22.3519C77.3664 22.4061 77.0198 22.4603 76.6732 22.5307C76.384 22.5817 76.0983 22.6504 75.8176 22.7365C75.647 22.7794 75.4855 22.8528 75.341 22.9531C75.218 23.0775 75.1269 23.2299 75.0756 23.3971C74.959 23.6956 74.8684 24.0036 74.8049 24.3178C74.7258 24.6971 74.6661 25.0803 74.6262 25.4658C74.5828 25.8774 74.5504 26.2998 74.5233 26.733C74.4962 27.1663 74.4854 27.5887 74.4854 28.0003C74.4693 29.6265 74.6808 31.2469 75.1136 32.8146C75.5338 34.2749 76.2737 35.6235 77.2797 36.7624C77.7881 37.3604 78.3768 37.8852 79.0289 38.3221C79.6287 38.7175 80.2719 39.0428 80.946 39.2914C81.582 39.5257 82.2409 39.6927 82.9118 39.7896C84.3496 39.9806 85.8063 39.9806 87.2441 39.7896C87.9168 39.6927 88.5774 39.5258 89.2153 39.2914C89.8881 39.0438 90.5297 38.7185 91.127 38.3221C91.7799 37.8842 92.3702 37.3595 92.8816 36.7624C93.8863 35.6225 94.626 34.2743 95.0478 32.8146C95.1777 32.3651 95.286 31.9048 95.3781 31.4282C94.7138 31.4968 94.0477 31.5347 93.3798 31.5419L93.3202 31.5311Z" fill="white"/>
<path d="M92.6758 9.39292L91.7931 9.42541C91.3599 9.45248 90.9375 9.48498 90.5259 9.5283C90.1404 9.56827 89.7572 9.62793 89.3778 9.70702C89.0637 9.77059 88.7557 9.86118 88.4572 9.97779C88.2899 10.0291 88.1376 10.1201 88.0131 10.2431C87.9107 10.3872 87.8355 10.5487 87.7911 10.7197C87.7098 11.0013 87.6429 11.2869 87.5907 11.5753C87.5203 11.9219 87.4608 12.2739 87.412 12.6205C87.3633 12.9671 87.3146 13.2866 87.2821 13.5682C87.2496 13.8498 87.2333 14.0285 87.2333 14.1098C87.2313 14.2024 87.2479 14.2944 87.2821 14.3805C87.2958 14.4161 87.3206 14.4463 87.3527 14.4667C87.3849 14.4872 87.4228 14.4968 87.4608 14.4943C87.5028 14.4984 87.5452 14.491 87.5833 14.4728C87.6215 14.4547 87.654 14.4265 87.6774 14.3914C87.738 14.2634 87.7765 14.1261 87.7911 13.9852C87.8644 13.6937 87.9679 13.4105 88.0998 13.1404C88.2355 12.8325 88.4182 12.5475 88.6413 12.2956C89.123 11.7196 89.7754 11.3118 90.5042 11.1313C91.3444 10.9521 92.2013 10.8632 93.0603 10.8659C92.9792 10.3598 92.843 9.86406 92.6542 9.38751L92.6758 9.39292ZM96.602 11.6836C97.3495 12.0606 98.036 12.5481 98.6382 13.1296C99.4755 13.9452 100.148 14.9141 100.62 15.9835C101.665 18.5379 101.665 21.4006 100.62 23.955C100.152 25.0219 99.4824 25.9889 98.649 26.8035C97.8993 27.5339 97.0146 28.1115 96.0442 28.504C95.1842 28.8548 94.2653 29.0386 93.3365 29.0455C92.3925 29.0658 91.4494 28.9767 90.5259 28.7802C89.7962 28.6018 89.1431 28.1936 88.663 27.6158C88.4398 27.364 88.2571 27.079 88.1215 26.771C87.9889 26.5031 87.8854 26.2217 87.8128 25.9316C87.7987 25.7889 87.7603 25.6497 87.6991 25.5201C87.6749 25.4857 87.6422 25.4582 87.6043 25.4401C87.5663 25.4221 87.5243 25.4142 87.4824 25.4172C87.4436 25.414 87.4048 25.4241 87.3724 25.4457C87.34 25.4673 87.3158 25.4992 87.3037 25.5363C87.2694 25.6205 87.2528 25.7108 87.255 25.8017C87.255 25.8883 87.2712 26.0688 87.3037 26.3432C87.3362 26.6194 87.3795 26.9389 87.4337 27.2855C87.4878 27.6321 87.542 27.9841 87.6124 28.3361C87.6828 28.6881 87.7478 28.9697 87.8128 29.1917C87.8559 29.3616 87.9312 29.5215 88.0348 29.6629C88.1583 29.7871 88.3109 29.8784 88.4789 29.9282C88.7774 30.0448 89.0854 30.1354 89.3995 30.199C89.7789 30.2781 90.1621 30.3377 90.5476 30.3777C90.9591 30.421 91.3815 30.4535 91.8148 30.4806C92.248 30.5077 92.6704 30.5185 93.0766 30.5185C94.7046 30.5346 96.3268 30.3231 97.8963 29.8903C99.356 29.4686 100.704 28.7288 101.844 27.7241C102.44 27.2131 102.964 26.6249 103.404 25.975C103.799 25.3752 104.125 24.7319 104.373 24.0579C104.607 23.42 104.774 22.7593 104.871 22.0867C105.062 20.6489 105.062 19.1921 104.871 17.7543C104.774 17.0835 104.607 16.4246 104.373 15.7885C104.125 15.1145 103.799 14.4713 103.404 13.8715C102.967 13.2194 102.442 12.6307 101.844 12.1223C100.705 11.1163 99.3567 10.3763 97.8963 9.95613C97.4383 9.82374 96.9738 9.71529 96.5045 9.6312C96.5794 10.2929 96.6192 10.9581 96.6237 11.6241L96.602 11.6836Z" fill="white"/>
<path d="M84.3524 19.2813L92.6596 12.3496L85.7279 20.6568L84.3524 19.2813Z" fill="white"/>
<path d="M84.3523 20.6568L77.4206 12.3496L85.7278 19.2813L84.3523 20.6568Z" fill="white"/>
<path d="M85.7278 20.6569L77.4206 27.5832L84.3523 19.2814L85.7278 20.6569Z" fill="white"/>
<path d="M85.7279 19.2814L92.6596 27.5832L84.3524 20.6569L85.7279 19.2814Z" fill="white"/>
<path fill-rule="evenodd" clip-rule="evenodd" d="M85.0345 13.4543C85.0444 15.1748 85.7323 16.8219 86.9488 18.0385C88.1654 19.255 89.8125 19.9429 91.533 19.9528C89.8121 19.9614 88.1641 20.6488 86.9473 21.8656C85.7304 23.0825 85.043 24.7305 85.0345 26.4513C85.0259 24.7305 84.3385 23.0825 83.1217 21.8656C81.9048 20.6488 80.2568 19.9614 78.5359 19.9528C80.2564 19.9429 81.9035 19.255 83.1201 18.0385C84.3366 16.8219 85.0245 15.1748 85.0345 13.4543Z" fill="white"/>
<path d="M8.14087 66.6771C8.10879 68.4345 8.41015 70.1821 9.02899 71.8272C9.55432 73.2183 10.3494 74.4918 11.3685 75.5747C12.317 76.5676 13.4624 77.3516 14.7314 77.8762C15.9866 78.3954 17.3318 78.6622 18.6901 78.6615C19.6924 78.6701 20.6869 78.4863 21.6199 78.1199C22.5332 77.7566 23.3888 77.2622 24.1597 76.6523C24.9725 76.0088 25.7166 75.2828 26.38 74.4862C27.0732 73.6739 27.7393 72.8236 28.3729 71.9193L31.4489 74.1775C30.752 75.2773 29.9484 76.3058 29.0498 77.2481C28.1079 78.2415 27.0496 79.1179 25.8981 79.8583C24.7175 80.6203 23.4433 81.2265 22.1073 81.6616C20.7081 82.1154 19.2458 82.3439 17.7749 82.3385C15.351 82.3624 12.9402 81.9798 10.6428 81.2067C8.58055 80.5156 6.67035 79.4346 5.01617 78.0225C3.44621 76.6591 2.1868 74.9749 1.32285 73.0836C0.421547 71.0639 -0.0293453 68.8723 0.00148046 66.6609C-0.0235226 64.4951 0.404424 62.348 1.25786 60.3573C2.06751 58.4796 3.26313 56.7932 4.76706 55.4076C6.36327 53.9759 8.22538 52.8718 10.2475 52.1584C12.5158 51.3549 14.9084 50.9589 17.3146 50.9886C18.9109 50.9713 20.502 51.1754 22.0423 51.5952C23.4151 51.9741 24.729 52.5409 25.9468 53.2794C27.1086 53.9818 28.166 54.8441 29.0877 55.8409C30.0143 56.8465 30.8328 57.9464 31.5301 59.1226L28.4325 61.2888C27.8033 60.3962 27.114 59.5476 26.3692 58.749C25.6485 57.9746 24.8521 57.2743 23.9918 56.6586C23.1716 56.0755 22.2798 55.6005 21.3383 55.2452C20.4129 54.8919 19.4315 54.7085 18.441 54.7036C17.094 54.6998 15.7595 54.963 14.5148 55.478C13.2687 55.9938 12.1491 56.7735 11.2331 57.7633C10.244 58.8539 9.47693 60.1268 8.97484 61.5108C8.38843 63.1688 8.10591 64.9189 8.14087 66.6771Z" fill="white"/>
<path d="M58.4177 51.0861H55.2334L40.6172 81.6887H45.6156L50.9444 70.7224L55.5204 61.0397L59.9665 70.7224L64.9595 81.6887H72.4816L58.4177 51.0861Z" fill="white"/>
<path d="M83.0146 51.709H95.8871C97.483 51.6904 99.075 51.8723 100.626 52.2505C101.937 52.564 103.189 53.0909 104.33 53.8102C105.309 54.421 106.133 55.2494 106.74 56.2309C107.318 57.1734 107.619 58.2604 107.606 59.3664C107.609 60.0305 107.531 60.6925 107.373 61.3376C107.215 61.9428 106.957 62.5175 106.61 63.038C106.215 63.6099 105.743 64.124 105.207 64.5652C104.526 65.1161 103.802 65.6106 103.041 66.0436C103.896 66.312 104.713 66.6887 105.472 67.1646C106.189 67.6053 106.834 68.1532 107.384 68.7892C107.917 69.4078 108.343 70.1105 108.646 70.8688C108.947 71.6401 109.1 72.4614 109.095 73.2895C109.104 74.437 108.827 75.5686 108.288 76.582C107.728 77.6251 106.944 78.5313 105.992 79.2356C104.908 80.0302 103.695 80.6328 102.407 81.0173C100.905 81.4663 99.3444 81.6854 97.7771 81.6671H83.0146V51.709ZM90.3796 64.706H95.2047C95.9183 64.7194 96.6278 64.5962 97.2951 64.3432C97.8777 64.1174 98.4056 63.7704 98.8439 63.3251C99.2728 62.8799 99.6015 62.3481 99.8078 61.7654C100.031 61.1344 100.143 60.4691 100.138 59.7996C100.15 59.056 100.006 58.3182 99.7158 57.6335C99.4349 56.995 99.0016 56.4353 98.454 56.0034C97.8111 55.5019 97.0747 55.1337 96.2878 54.9203C95.2646 54.6421 94.207 54.5108 93.1469 54.5304H90.4067L90.3796 64.706ZM90.3796 78.6128H94.4466C95.4922 78.6339 96.5354 78.5044 97.5442 78.2283C98.3284 78.0081 99.0636 77.6405 99.7104 77.1452C100.26 76.7176 100.694 76.159 100.972 75.5206C101.247 74.8734 101.385 74.1766 101.378 73.4736C101.385 72.6801 101.259 71.8911 101.005 71.1395C100.754 70.4273 100.331 69.7876 99.7753 69.2766C99.1334 68.7021 98.3711 68.2784 97.5442 68.0365C96.4492 67.7155 95.3111 67.5657 94.1704 67.5924H90.3796V78.6128Z" fill="white"/>
<path d="M121.551 51.7089H128.889V81.6887H121.551V51.7089Z" fill="white"/>
<path d="M142.747 51.709H154.022C155.74 51.6798 157.454 51.8839 159.118 52.3155C160.422 52.6517 161.653 53.2284 162.746 54.016C163.664 54.6981 164.407 55.5892 164.912 56.6154C165.4 57.6287 165.65 58.74 165.643 59.8646C165.647 60.6974 165.477 61.5218 165.145 62.2853C164.805 63.0606 164.335 63.7714 163.753 64.3865C163.118 65.0564 162.388 65.6294 161.587 66.087C160.702 66.5991 159.763 67.0114 158.787 67.3163L169.466 81.6672H161.473L151.411 68.1286H150.112V81.6672H142.747V51.709ZM150.112 65.5021H151.698C152.547 65.5098 153.391 65.3837 154.2 65.1284C154.926 64.8977 155.601 64.5301 156.188 64.0454C156.742 63.5816 157.185 62.9985 157.482 62.3395C157.81 61.6192 157.973 60.8347 157.959 60.0433C157.966 59.3056 157.843 58.5724 157.596 57.8772C157.372 57.2463 157.03 56.6638 156.589 56.1605C156.159 55.6811 155.631 55.3006 155.04 55.0449C154.419 54.7765 153.75 54.64 153.074 54.6442H150.09L150.112 65.5021Z" fill="white"/>
<path d="M33.5989 88.3551H37.3897C38.4047 88.3379 39.4179 88.4471 40.406 88.68C41.1787 88.8662 41.8991 89.2254 42.5126 89.7306C43.1297 90.2446 43.6237 90.8903 43.9583 91.6204C44.2929 92.3505 44.4595 93.1463 44.446 93.9492C44.4503 94.7248 44.3031 95.4937 44.0127 96.2129C43.725 96.9105 43.291 97.5384 42.7401 98.0541C42.1401 98.6053 41.4345 99.0291 40.666 99.2997C39.7598 99.6169 38.8045 99.7709 37.8445 99.7546H33.588L33.5989 88.3551ZM35.5159 98.9206H37.5521C38.1711 98.9239 38.7856 98.8156 39.3663 98.6011C39.9241 98.3972 40.4305 98.0737 40.8501 97.6534C41.285 97.2151 41.6242 96.6914 41.8465 96.1154C42.1008 95.4372 42.224 94.7168 42.2094 93.9926C42.2168 93.3308 42.1011 92.6733 41.8682 92.0538C41.6533 91.4881 41.3253 90.9722 40.9043 90.5375C40.4823 90.1201 39.9791 89.7938 39.4259 89.579C38.8329 89.3378 38.1976 89.2181 37.5575 89.227H35.5105L35.5159 98.9206Z" fill="white"/>
<path d="M62.712 88.3552V89.0917H56.7009V93.1695H60.7246V93.9114H56.7009V99.0181H62.712V99.7601H54.7784V88.3877L62.712 88.3552Z" fill="white"/>
<path d="M72.7035 88.3552H74.626V99.0127H80.3663V99.7546H72.7035V88.3552Z" fill="white"/>
<path d="M89.6483 88.3552H91.56V95.7581C91.5584 96.2262 91.6429 96.6906 91.8091 97.1282C91.9706 97.5501 92.2168 97.9346 92.5325 98.2577C92.8483 98.5809 93.2268 98.836 93.6449 99.0073C94.5873 99.3829 95.6377 99.3829 96.5801 99.0073C96.997 98.8373 97.3741 98.5824 97.6873 98.2589C98.0006 97.9354 98.2431 97.5504 98.3997 97.1282C98.5642 96.6903 98.6468 96.2258 98.6434 95.7581V88.3552H99.4882V95.7581C99.4882 96.3122 99.3911 96.8621 99.2012 97.3827C99.016 97.8977 98.7116 98.3616 98.313 98.7365C97.8696 99.1521 97.3411 99.4662 96.7642 99.6572C96.033 99.9002 95.2655 100.016 94.4952 99.9983C93.7853 100.011 93.0789 99.8957 92.4102 99.6572C91.843 99.4599 91.3243 99.1442 90.8885 98.7311C90.4808 98.3487 90.1627 97.8808 89.957 97.361C89.7487 96.826 89.644 96.2563 89.6483 95.6822V88.3552Z" fill="white"/>
<path d="M109.604 99.7546H108.597L113.406 94.1334L109.02 88.3552H111.299L114.608 92.7308L118.339 88.3552H119.352L115.074 93.359L119.948 99.7546H117.652L113.861 94.7616L109.604 99.7546Z" fill="white"/>
<path d="M137.169 88.3552V89.0917H131.163V93.1695H135.187V93.9114H131.163V99.0181H137.169V99.7601H129.246V88.3877L137.169 88.3552Z" fill="white"/>
<path fill-rule="evenodd" clip-rule="evenodd" d="M125.228 39.9196C125.234 41.3435 125.803 42.7071 126.812 43.7119C127.821 44.7167 129.187 45.2809 130.611 45.2809C129.187 45.2866 127.823 45.8563 126.818 46.8651C125.814 47.874 125.249 49.2399 125.249 50.6638C125.235 49.2426 124.663 47.8839 123.656 46.8809C122.649 45.8779 121.288 45.311 119.867 45.3025C121.289 45.2883 122.648 44.7152 123.651 43.707C124.654 42.6988 125.221 41.3364 125.228 39.9142V39.9196Z" fill="white"/>
<path fill-rule="evenodd" clip-rule="evenodd" d="M55.4392 70.9446C55.4534 72.3658 56.0258 73.7245 57.0328 74.7275C58.0399 75.7305 59.4009 76.2974 60.8221 76.3059C59.4009 76.32 58.0422 76.8924 57.0392 77.8995C56.0362 78.9065 55.4693 80.2675 55.4609 81.6888C55.4551 80.2649 54.8855 78.9013 53.8766 77.8965C52.8677 76.8917 51.5018 76.3275 50.0779 76.3275C51.4992 76.3133 52.8579 75.741 53.8609 74.7339C54.8639 73.7269 55.4308 72.3659 55.4392 70.9446Z" fill="white"/>
</svg>
