<svg width="106" height="62" viewBox="0 0 106 62" fill="none" xmlns="http://www.w3.org/2000/svg">
<path d="M46.1675 7.64333C46.1675 7.82128 46.1675 8.00594 46.1876 8.19061C46.2044 8.46257 46.2246 8.72111 46.2514 8.97628C46.2762 9.21528 46.3132 9.45286 46.3622 9.68808C46.4016 9.88283 46.4578 10.0738 46.5301 10.2589C46.5614 10.3638 46.6179 10.4595 46.6946 10.5375C46.7837 10.5985 46.8825 10.6439 46.9867 10.6718C47.1244 10.7121 47.3023 10.7558 47.5172 10.7994C47.7321 10.8431 47.9504 10.8767 48.1686 10.9102L48.7562 10.9875C48.9274 11.0076 49.0416 11.021 49.0919 11.021C49.1495 11.0209 49.2066 11.0095 49.2598 10.9875C49.2818 10.9789 49.3006 10.9636 49.3132 10.9436C49.3259 10.9237 49.3319 10.9002 49.3303 10.8767C49.3322 10.8507 49.3273 10.8246 49.3161 10.8011C49.3049 10.7776 49.2878 10.7573 49.2665 10.7424C49.1861 10.7044 49.0998 10.6806 49.0114 10.6718C48.8311 10.6284 48.6564 10.5642 48.4909 10.4805C48.3 10.3963 48.1233 10.2831 47.9671 10.1447C47.6089 9.84705 47.3559 9.44213 47.2453 8.9897C47.1325 8.46907 47.0774 7.93763 47.0808 7.40494C46.767 7.45526 46.4596 7.5397 46.1641 7.65676L46.1675 7.64333ZM47.5877 5.20909C47.8215 4.74564 48.1237 4.32004 48.4842 3.94664C48.9906 3.43238 49.5898 3.0188 50.2503 2.72784C51.8333 2.07639 53.6096 2.07639 55.1926 2.72784C55.8547 3.01764 56.4553 3.43133 56.9621 3.94664C57.4143 4.4113 57.7713 4.95993 58.013 5.56163C58.2313 6.09458 58.3453 6.66449 58.3487 7.24041C58.3617 7.82569 58.3064 8.41048 58.1842 8.98299C58.0736 9.43542 57.8206 9.84033 57.4623 10.138C57.3062 10.2764 57.1295 10.3896 56.9386 10.4738C56.7728 10.5569 56.5983 10.6211 56.4181 10.6651C56.3297 10.6738 56.2433 10.6977 56.163 10.7356C56.1411 10.7501 56.1237 10.7703 56.1124 10.794C56.1012 10.8176 56.0966 10.8439 56.0992 10.8699C56.0976 10.8935 56.1036 10.917 56.1162 10.9369C56.1289 10.9568 56.1476 10.9722 56.1697 10.9807C56.2229 11.0028 56.2799 11.0142 56.3376 11.0143C56.3913 11.0143 56.5054 11.0143 56.6733 10.9807L57.2609 10.9035C57.4758 10.8699 57.694 10.833 57.9089 10.7927C58.1238 10.7524 58.3051 10.7054 58.4427 10.6651C58.547 10.6372 58.6458 10.5918 58.7349 10.5308C58.8116 10.4527 58.8681 10.3571 58.8994 10.2522C58.9717 10.0671 59.0278 9.87611 59.0673 9.68137C59.1163 9.44615 59.1533 9.20856 59.1781 8.96956C59.2049 8.71438 59.2251 8.45585 59.2419 8.18389C59.2586 7.91193 59.2653 7.6534 59.2653 7.40158C59.2753 6.39223 59.1442 5.38643 58.8759 4.41335C58.6127 3.50902 58.1542 2.67348 57.5328 1.96568C57.2165 1.59573 56.8504 1.27143 56.445 1.00206C56.0747 0.753231 55.6756 0.550286 55.2564 0.397692C54.8616 0.253966 54.4533 0.150481 54.0376 0.0888017C53.1462 -0.0296006 52.243 -0.0296006 51.3516 0.0888017C50.9359 0.150481 50.5276 0.253966 50.1328 0.397692C49.7136 0.550286 49.3145 0.753231 48.9442 1.00206C48.5388 1.27143 48.1727 1.59573 47.8563 1.96568C47.235 2.67348 46.7765 3.50902 46.5133 4.41335C46.4327 4.69203 46.3656 4.98077 46.3085 5.27624C46.7215 5.22923 47.1345 5.20908 47.5474 5.20237L47.5877 5.20909Z" fill="white"/>
<path d="M47.9873 18.9416L48.5346 18.9215C48.8032 18.9047 49.0651 18.8845 49.3202 18.8577C49.5592 18.8329 49.7968 18.7959 50.032 18.7469C50.2267 18.7085 50.4176 18.6534 50.6028 18.5823C50.7072 18.5482 50.8025 18.4908 50.8815 18.4145C50.9431 18.3257 50.9885 18.2269 51.0158 18.1224C51.0561 17.9847 51.0998 17.8067 51.1401 17.5919C51.1803 17.377 51.2206 17.1587 51.2508 16.9405C51.2811 16.7223 51.3113 16.5309 51.3314 16.3563C51.3516 16.1817 51.3617 16.0675 51.3617 16.0205C51.363 15.9642 51.3527 15.9082 51.3314 15.856C51.323 15.8336 51.3078 15.8145 51.2879 15.8012C51.268 15.788 51.2445 15.7813 51.2206 15.7821C51.1946 15.7803 51.1686 15.7852 51.1451 15.7964C51.1216 15.8075 51.1013 15.8246 51.0863 15.8459C51.0484 15.9263 51.0245 16.0126 51.0158 16.1011C50.9704 16.2819 50.9062 16.4574 50.8244 16.6249C50.7395 16.8144 50.6263 16.9898 50.4887 17.1453C50.191 17.5035 49.7861 17.7566 49.3337 17.8672C48.813 17.9799 48.2816 18.0351 47.7489 18.0317C47.7988 18.3456 47.8833 18.653 48.0007 18.9483L47.9873 18.9416ZM45.5531 17.5213C45.0896 17.2876 44.664 16.9854 44.2906 16.6249C43.7732 16.1204 43.3582 15.5207 43.0685 14.8588C42.4206 13.275 42.4206 11.5002 43.0685 9.91646C43.3582 9.25452 43.7732 8.65482 44.2906 8.15038C44.7546 7.69644 45.3033 7.33822 45.9056 7.0961C46.439 6.87934 47.0086 6.76542 47.5844 6.76035C48.1698 6.74831 48.7546 6.80465 49.327 6.92823C49.7791 7.03747 50.1841 7.2894 50.482 7.64674C50.6203 7.80289 50.7336 7.9796 50.8177 8.17053C50.8995 8.33801 50.9637 8.51355 51.0091 8.69431C51.0177 8.78174 51.0415 8.86697 51.0796 8.94613C51.0941 8.96794 51.1143 8.9854 51.1379 8.99664C51.1616 9.00788 51.1878 9.01247 51.2139 9.00992C51.2375 9.01152 51.261 9.00554 51.2809 8.99285C51.3008 8.98017 51.3162 8.96144 51.3247 8.93941C51.3459 8.88603 51.3562 8.82894 51.3549 8.77153C51.3549 8.72116 51.3549 8.60701 51.3247 8.43577C51.2945 8.26453 51.2777 8.06644 51.2441 7.8482C51.2106 7.62995 51.177 7.41507 51.1333 7.20019C51.101 7.02135 51.0595 6.84429 51.0091 6.6697C50.9818 6.5652 50.9364 6.46631 50.8748 6.37758C50.7971 6.29962 50.7014 6.24197 50.5961 6.2097C50.4105 6.13894 50.2197 6.08281 50.0253 6.04182C49.7901 5.99279 49.5525 5.95581 49.3135 5.93103C49.0584 5.90417 48.7965 5.88402 48.5279 5.86723C48.2593 5.85045 47.9974 5.84373 47.7455 5.84373C46.7362 5.83377 45.7304 5.96486 44.7573 6.23321C43.8519 6.49373 43.0158 6.9525 42.3096 7.57623C41.9389 7.89146 41.6135 8.25641 41.3427 8.66073C41.0975 9.0326 40.8958 9.43141 40.7417 9.84931C40.5964 10.2437 40.4929 10.6522 40.4328 11.0681C40.3144 11.9595 40.3144 12.8627 40.4328 13.7542C40.4924 14.1713 40.596 14.5809 40.7417 14.9763C40.8958 15.3942 41.0975 15.793 41.3427 16.1649C41.6153 16.5678 41.9405 16.9326 42.3096 17.2494C43.0158 17.8731 43.8519 18.3319 44.7573 18.5924C45.036 18.6696 45.3247 18.7368 45.6202 18.7939C45.5739 18.3825 45.5492 17.9689 45.5463 17.5549L45.5531 17.5213Z" fill="white"/>
<path d="M59.2788 17.1151C59.2788 16.9371 59.2788 16.7558 59.2587 16.5678C59.2419 16.2992 59.2217 16.0373 59.1949 15.7821C59.1701 15.5431 59.1331 15.3055 59.0841 15.0703C59.0447 14.8756 58.9885 14.6846 58.9162 14.4995C58.8853 14.3954 58.8287 14.3007 58.7517 14.2242C58.6637 14.1613 58.5646 14.1157 58.4596 14.0899C58.2854 14.0369 58.1083 13.9943 57.9291 13.9623C57.7108 13.9187 57.4959 13.8817 57.2777 13.8515C57.0594 13.8213 56.8647 13.7944 56.6935 13.7709C56.5222 13.7474 56.4047 13.7407 56.3577 13.7407C56.3014 13.7394 56.2454 13.7497 56.1932 13.7709C56.1708 13.7794 56.1517 13.7946 56.1384 13.8144C56.1252 13.8343 56.1185 13.8579 56.1193 13.8817C56.1171 13.9078 56.1219 13.9339 56.1331 13.9575C56.1443 13.9811 56.1616 14.0013 56.1831 14.016C56.2638 14.0539 56.3499 14.0789 56.4383 14.0899C56.6185 14.132 56.7932 14.1951 56.9587 14.2779C57.149 14.3631 57.3256 14.4763 57.4825 14.6137C57.8407 14.9113 58.0938 15.3162 58.2044 15.7687C58.3171 16.2905 58.3723 16.823 58.3689 17.3568C58.6826 17.3042 58.9898 17.2187 59.2855 17.1016L59.2788 17.1151ZM57.8585 19.5493C57.6249 20.0138 57.3227 20.4405 56.9621 20.8151C56.4557 21.3294 55.8564 21.7429 55.196 22.0339C53.6122 22.6817 51.8374 22.6817 50.2537 22.0339C49.592 21.7433 48.9916 21.3297 48.4842 20.8151C48.0329 20.3484 47.676 19.7989 47.4333 19.1968C47.2159 18.6635 47.102 18.0938 47.0975 17.518C47.085 16.9327 47.1402 16.348 47.2621 15.7754C47.374 15.3235 47.6268 14.919 47.9839 14.6204C48.1408 14.483 48.3174 14.3699 48.5077 14.2846C48.6744 14.2018 48.8502 14.1387 49.0315 14.0966C49.1188 14.0852 49.2037 14.0603 49.2833 14.0228C49.3054 14.0085 49.3231 13.9884 49.3344 13.9647C49.3456 13.941 49.35 13.9146 49.3471 13.8885C49.3477 13.8651 49.3413 13.842 49.3288 13.8223C49.3162 13.8025 49.298 13.787 49.2766 13.7776C49.2232 13.7565 49.1661 13.7462 49.1087 13.7474C49.055 13.7474 48.9442 13.7474 48.773 13.7776C48.6017 13.8079 48.4036 13.8246 48.1854 13.8582C47.9672 13.8918 47.7523 13.9254 47.5374 13.969C47.3581 14.0006 47.1809 14.0433 47.0069 14.0966C46.9011 14.1232 46.801 14.1687 46.7114 14.2309C46.6352 14.3081 46.5787 14.4025 46.5469 14.5062C46.4746 14.6913 46.4184 14.8823 46.379 15.077C46.33 15.3122 46.293 15.5498 46.2682 15.7888C46.2414 16.044 46.2212 16.3059 46.2044 16.5745C46.1876 16.8431 46.1809 17.105 46.1809 17.3602C46.171 18.3684 46.3021 19.3731 46.5704 20.345C46.8309 21.2505 47.2897 22.0866 47.9134 22.7927C48.2287 23.1635 48.5936 23.4889 48.9979 23.7597C49.3698 24.0049 49.7686 24.2065 50.1865 24.3607C50.5809 24.506 50.9894 24.6095 51.4053 24.6696C52.2967 24.788 53.1999 24.788 54.0914 24.6696C54.5084 24.6095 54.918 24.506 55.3135 24.3607C55.7306 24.2072 56.1284 24.0055 56.4987 23.7597C56.9035 23.4882 57.2695 23.1629 57.5866 22.7927C58.2095 22.086 58.6681 21.2501 58.9296 20.345C59.0102 20.0664 59.0773 19.781 59.1344 19.4855C58.7226 19.528 58.3096 19.5515 57.8955 19.556L57.8585 19.5493Z" fill="white"/>
<path d="M57.459 5.8236L56.9117 5.84375C56.6431 5.86053 56.3812 5.88068 56.1261 5.90754C55.8871 5.93232 55.6495 5.96931 55.4143 6.01835C55.2195 6.05776 55.0285 6.11393 54.8435 6.18622C54.7398 6.21802 54.6453 6.27447 54.5682 6.35074C54.5047 6.44003 54.458 6.54016 54.4305 6.64621C54.3801 6.82081 54.3386 6.99786 54.3063 7.1767C54.2626 7.39158 54.2257 7.60983 54.1955 7.82472C54.1652 8.0396 54.135 8.2377 54.1149 8.41229C54.0947 8.58689 54.0847 8.69769 54.0847 8.74805C54.0834 8.80547 54.0937 8.86255 54.1149 8.91593C54.1234 8.93796 54.1388 8.95668 54.1587 8.96936C54.1786 8.98205 54.2021 8.98803 54.2257 8.98643C54.2518 8.98898 54.278 8.98439 54.3017 8.97315C54.3253 8.96192 54.3455 8.94445 54.36 8.92264C54.3976 8.8433 54.4214 8.75815 54.4305 8.67082C54.4759 8.49006 54.5401 8.31452 54.6219 8.14704C54.706 7.95612 54.8193 7.77942 54.9576 7.62326C55.2562 7.26612 55.6608 7.01329 56.1126 6.90139C56.6335 6.79031 57.1648 6.73515 57.6974 6.73686C57.6471 6.42307 57.5626 6.11571 57.4456 5.82025L57.459 5.8236ZM59.8932 7.24386C60.3567 7.47758 60.7823 7.77979 61.1557 8.14032C61.6748 8.64603 62.092 9.24673 62.3846 9.90976C63.0324 11.4935 63.0324 13.2683 62.3846 14.8521C62.094 15.5136 61.6791 16.1131 61.1624 16.6182C60.6976 17.071 60.149 17.4291 59.5474 17.6725C59.0142 17.89 58.4445 18.0039 57.8686 18.0082C57.2834 18.0208 56.6986 17.9656 56.1261 17.8437C55.6736 17.7331 55.2687 17.48 54.9711 17.1218C54.8327 16.9657 54.7194 16.789 54.6353 16.598C54.5531 16.4319 54.4889 16.2574 54.4439 16.0776C54.4352 15.9891 54.4114 15.9028 54.3734 15.8224C54.3584 15.8011 54.3382 15.784 54.3147 15.7729C54.2911 15.7617 54.2651 15.7568 54.2391 15.7586C54.215 15.7567 54.191 15.7629 54.1709 15.7763C54.1508 15.7897 54.1358 15.8095 54.1283 15.8325C54.107 15.8847 54.0967 15.9407 54.0981 15.997C54.0981 16.0508 54.1082 16.1627 54.1283 16.3328C54.1485 16.504 54.1753 16.7021 54.2089 16.917C54.2425 17.1319 54.276 17.3501 54.3197 17.5684C54.3633 17.7866 54.4036 17.9612 54.4439 18.0989C54.4706 18.2042 54.5174 18.3033 54.5816 18.391C54.6581 18.468 54.7528 18.5246 54.8569 18.5555C55.042 18.6278 55.2329 18.684 55.4277 18.7234C55.6629 18.7724 55.9005 18.8094 56.1395 18.8342C56.3947 18.861 56.6566 18.8812 56.9252 18.898C57.1938 18.9148 57.4557 18.9215 57.7075 18.9215C58.7168 18.9314 59.7226 18.8003 60.6957 18.532C61.6008 18.2705 62.4367 17.8119 63.1434 17.189C63.5126 16.8721 63.8378 16.5074 64.1104 16.1045C64.3555 15.7326 64.5572 15.3338 64.7114 14.9159C64.8566 14.5204 64.9602 14.1108 65.0203 13.6937C65.1387 12.8023 65.1387 11.8991 65.0203 11.0077C64.9602 10.5917 64.8566 10.1832 64.7114 9.78889C64.5572 9.37098 64.3555 8.97218 64.1104 8.60032C63.8395 8.19599 63.5141 7.83104 63.1434 7.51582C62.4372 6.89208 61.6011 6.43331 60.6957 6.17279C60.4118 6.09072 60.1237 6.02347 59.8328 5.97134C59.8793 6.3816 59.9039 6.79404 59.9067 7.20692L59.8932 7.24386Z" fill="white"/>
<path d="M52.2985 11.9544L57.449 7.65674L53.1513 12.8072L52.2985 11.9544Z" fill="white"/>
<path d="M52.2984 12.8072L48.0008 7.65674L53.1513 11.9544L52.2984 12.8072Z" fill="white"/>
<path d="M53.1513 12.8073L48.0008 17.1016L52.2984 11.9545L53.1513 12.8073Z" fill="white"/>
<path d="M53.1513 11.9545L57.449 17.1016L52.2985 12.8073L53.1513 11.9545Z" fill="white"/>
<path fill-rule="evenodd" clip-rule="evenodd" d="M52.7214 8.34167C52.7275 9.40835 53.154 10.4296 53.9083 11.1839C54.6625 11.9381 55.6838 12.3646 56.7504 12.3708C55.6835 12.376 54.6618 12.8022 53.9073 13.5567C53.1528 14.3112 52.7267 15.3329 52.7214 16.3998C52.7161 15.3329 52.2899 14.3112 51.5354 13.5567C50.781 12.8022 49.7592 12.376 48.6923 12.3708C49.759 12.3646 50.7802 11.9381 51.5345 11.1839C52.2887 10.4296 52.7152 9.40835 52.7214 8.34167Z" fill="white"/>
<path d="M5.04734 41.3398C5.02745 42.4294 5.21429 43.5129 5.59798 44.5329C5.92368 45.3953 6.41662 46.185 7.04845 46.8563C7.63653 47.472 8.3467 47.958 9.13349 48.2833C9.91171 48.6051 10.7457 48.7706 11.5879 48.7701C12.2093 48.7755 12.8259 48.6615 13.4043 48.4344C13.9706 48.2091 14.5011 47.9026 14.979 47.5245C15.4829 47.1254 15.9443 46.6754 16.3556 46.1814C16.7854 45.6778 17.1984 45.1507 17.5912 44.59L19.4983 45.9901C19.0662 46.6719 18.568 47.3096 18.0109 47.8938C17.4269 48.5098 16.7708 49.0531 16.0568 49.5121C15.3248 49.9846 14.5349 50.3604 13.7065 50.6302C12.839 50.9116 11.9324 51.0532 11.0204 51.0499C9.51762 51.0647 8.02295 50.8275 6.59853 50.3482C5.31994 49.9197 4.13562 49.2495 3.11003 48.3739C2.13665 47.5286 1.35581 46.4845 0.820164 45.3118C0.261359 44.0597 -0.0181941 42.7008 0.000917883 41.3298C-0.014584 39.987 0.250743 38.6558 0.779875 37.4216C1.28186 36.2574 2.02314 35.2118 2.95558 34.3527C3.94523 33.465 5.09973 32.7806 6.35343 32.3382C7.7598 31.8401 9.24318 31.5945 10.7351 31.613C11.7248 31.6022 12.7112 31.7287 13.6662 31.989C14.5174 32.224 15.332 32.5754 16.087 33.0332C16.8074 33.4687 17.4629 34.0033 18.0344 34.6214C18.6088 35.2448 19.1164 35.9268 19.5487 36.656L17.6281 37.9991C17.2381 37.4457 16.8107 36.9195 16.3489 36.4244C15.9021 35.9442 15.4083 35.5101 14.8749 35.1283C14.3664 34.7668 13.8135 34.4723 13.2297 34.252C12.656 34.033 12.0475 33.9193 11.4334 33.9163C10.5983 33.9139 9.7709 34.0771 8.99919 34.3964C8.22658 34.7162 7.53244 35.1996 6.96451 35.8133C6.35127 36.4894 5.8757 37.2786 5.5644 38.1367C5.20083 39.1646 5.02566 40.2497 5.04734 41.3398Z" fill="white"/>
<path d="M36.219 31.6734H34.2447L25.1827 50.647H28.2817L31.5855 43.8479L34.4227 37.8446L37.1792 43.8479L40.2749 50.647H44.9386L36.219 31.6734Z" fill="white"/>
<path d="M51.469 32.0596H59.45C60.4395 32.0481 61.4265 32.1609 62.3879 32.3953C63.2012 32.5897 63.977 32.9164 64.6844 33.3623C65.2913 33.741 65.8026 34.2546 66.1785 34.8631C66.5373 35.4475 66.7236 36.1215 66.7158 36.8072C66.7178 37.2189 66.6693 37.6294 66.5714 38.0293C66.4731 38.4046 66.3131 38.7608 66.098 39.0836C65.8536 39.4382 65.5609 39.7569 65.2284 40.0304C64.8064 40.372 64.3572 40.6786 63.8853 40.9471C64.4154 41.1134 64.9221 41.347 65.3929 41.6421C65.8371 41.9153 66.2368 42.255 66.5781 42.6493C66.9084 43.0328 67.1728 43.4685 67.3604 43.9386C67.5471 44.4169 67.6417 44.9261 67.6391 45.4395C67.6446 46.1509 67.4726 46.8526 67.1388 47.4809C66.7914 48.1276 66.3053 48.6894 65.7152 49.1261C65.0429 49.6187 64.2911 49.9923 63.4925 50.2307C62.5614 50.5091 61.5935 50.645 60.6218 50.6336H51.469V32.0596ZM56.0353 40.1177H59.0269C59.4693 40.126 59.9092 40.0497 60.3229 39.8928C60.6841 39.7528 61.0115 39.5376 61.2832 39.2615C61.5491 38.9856 61.7529 38.6559 61.8809 38.2946C62.0195 37.9033 62.0888 37.4909 62.0857 37.0758C62.0929 36.6147 62.0037 36.1573 61.8238 35.7328C61.6496 35.3369 61.381 34.9899 61.0415 34.7221C60.6429 34.4112 60.1863 34.1829 59.6984 34.0506C59.0641 33.8781 58.4084 33.7967 57.7511 33.8089H56.0521L56.0353 40.1177ZM56.0353 48.74H58.5569C59.2052 48.753 59.852 48.6728 60.4774 48.5016C60.9636 48.365 61.4194 48.1371 61.8204 47.8301C62.1612 47.5649 62.4302 47.2186 62.6027 46.8228C62.773 46.4215 62.8587 45.9895 62.8546 45.5536C62.859 45.0617 62.7807 44.5725 62.6229 44.1065C62.4672 43.6649 62.2055 43.2683 61.8607 42.9515C61.4627 42.5953 60.9901 42.3326 60.4774 42.1826C59.7985 41.9836 59.0929 41.8908 58.3856 41.9073H56.0353V48.74Z" fill="white"/>
<path d="M75.3614 32.0595H79.9109V50.647H75.3614V32.0595Z" fill="white"/>
<path d="M88.503 32.0596H95.4934C96.5587 32.0415 97.6216 32.168 98.6529 32.4356C99.4618 32.6441 100.225 33.0016 100.902 33.4899C101.472 33.9128 101.932 34.4653 102.246 35.1015C102.548 35.7298 102.703 36.4188 102.699 37.1161C102.701 37.6324 102.596 38.1435 102.39 38.6169C102.179 39.0976 101.887 39.5383 101.527 39.9196C101.133 40.335 100.681 40.6902 100.184 40.9739C99.6353 41.2914 99.0531 41.547 98.4481 41.7361L105.069 50.6336H100.113L93.8751 42.2397H93.0693V50.6336H88.503V32.0596ZM93.0693 40.6113H94.053C94.5791 40.616 95.1026 40.5379 95.6042 40.3796C96.0541 40.2366 96.4724 40.0086 96.8365 39.7081C97.1803 39.4206 97.4546 39.059 97.6389 38.6505C97.8423 38.2039 97.9433 37.7175 97.9344 37.2268C97.9388 36.7694 97.8626 36.3148 97.7094 35.8838C97.5705 35.4927 97.3586 35.1315 97.0849 34.8195C96.8185 34.5223 96.4909 34.2863 96.1247 34.1278C95.74 33.9614 95.325 33.8768 94.9059 33.8794H93.0558L93.0693 40.6113Z" fill="white"/>
<path d="M20.8313 54.7801H23.1816C23.8109 54.7695 24.4391 54.8372 25.0517 54.9816C25.5308 55.097 25.9774 55.3197 26.3578 55.633C26.7404 55.9516 27.0467 56.352 27.2541 56.8046C27.4616 57.2573 27.5649 57.7507 27.5565 58.2485C27.5592 58.7294 27.4679 59.2061 27.2879 59.652C27.1095 60.0845 26.8404 60.4738 26.4989 60.7935C26.1269 61.1353 25.6894 61.398 25.2129 61.5658C24.6511 61.7624 24.0588 61.8579 23.4636 61.8478H20.8246L20.8313 54.7801ZM22.0199 61.3308H23.2823C23.6661 61.3328 24.0471 61.2657 24.4071 61.1327C24.7529 61.0062 25.0669 60.8057 25.3271 60.5451C25.5967 60.2733 25.807 59.9487 25.9449 59.5915C26.1025 59.171 26.1789 58.7244 26.1698 58.2754C26.1744 57.865 26.1027 57.4575 25.9583 57.0734C25.825 56.7226 25.6217 56.4027 25.3606 56.1332C25.099 55.8744 24.787 55.6722 24.444 55.539C24.0764 55.3894 23.6825 55.3152 23.2857 55.3207H22.0165L22.0199 61.3308Z" fill="white"/>
<path d="M38.8815 54.7802V55.2368H35.1546V57.7651H37.6492V58.2251H35.1546V61.3913H38.8815V61.8512H33.9626V54.8004L38.8815 54.7802Z" fill="white"/>
<path d="M45.0762 54.7802H46.2681V61.3879H49.8271V61.8479H45.0762V54.7802Z" fill="white"/>
<path d="M55.582 54.7802H56.7672V59.37C56.7662 59.6602 56.8186 59.9482 56.9216 60.2195C57.0218 60.4811 57.1744 60.7194 57.3702 60.9198C57.5659 61.1202 57.8006 61.2784 58.0599 61.3845C58.6441 61.6174 59.2954 61.6174 59.8797 61.3845C60.1382 61.2791 60.3719 61.1211 60.5661 60.9205C60.7603 60.72 60.9107 60.4812 61.0078 60.2195C61.1098 59.948 61.161 59.66 61.1589 59.37V54.7802H61.6827V59.37C61.6827 59.7136 61.6225 60.0545 61.5047 60.3773C61.3899 60.6966 61.2012 60.9842 60.9541 61.2167C60.6791 61.4743 60.3515 61.669 59.9938 61.7875C59.5405 61.9382 59.0646 62.0097 58.587 61.999C58.1469 62.007 57.7089 61.9353 57.2943 61.7875C56.9427 61.6651 56.6211 61.4694 56.3509 61.2133C56.0981 60.9762 55.9009 60.6861 55.7734 60.3638C55.6442 60.0321 55.5793 59.6789 55.582 59.323V54.7802Z" fill="white"/>
<path d="M67.9547 61.8479H67.3302L70.3117 58.3627L67.5921 54.7802H69.0057L71.0571 57.4931L73.3705 54.7802H73.9984L71.3459 57.8826L74.3677 61.8479H72.9441L70.5938 58.7522L67.9547 61.8479Z" fill="white"/>
<path d="M85.0447 54.7802V55.2368H81.3212V57.7651H83.8159V58.2251H81.3212V61.3913H85.0447V61.8512H80.1326V54.8004L85.0447 54.7802Z" fill="white"/>
<path fill-rule="evenodd" clip-rule="evenodd" d="M77.6412 24.7502C77.6448 25.633 77.998 26.4784 78.6235 27.1014C79.249 27.7244 80.0958 28.0742 80.9786 28.0742C80.0958 28.0777 79.2504 28.4309 78.6274 29.0564C78.0044 29.6819 77.6546 30.5288 77.6547 31.4116C77.6459 30.5304 77.291 29.688 76.6666 29.0662C76.0422 28.4443 75.1984 28.0928 74.3172 28.0876C75.199 28.0788 76.0419 27.7235 76.6638 27.0984C77.2858 26.4733 77.6369 25.6286 77.6412 24.7468V24.7502Z" fill="white"/>
<path fill-rule="evenodd" clip-rule="evenodd" d="M34.3723 43.9856C34.3811 44.8668 34.736 45.7092 35.3603 46.331C35.9847 46.9529 36.8285 47.3043 37.7097 47.3096C36.8286 47.3184 35.9862 47.6733 35.3643 48.2976C34.7425 48.922 34.391 49.7658 34.3857 50.647C34.3822 49.7642 34.029 48.9188 33.4035 48.2958C32.778 47.6728 31.9311 47.323 31.0483 47.323C31.9295 47.3142 32.7719 46.9593 33.3937 46.335C34.0156 45.7106 34.3671 44.8668 34.3723 43.9856Z" fill="white"/>
</svg>
