<svg width="21" height="15" viewBox="0 0 21 15" fill="none" xmlns="http://www.w3.org/2000/svg">
<path d="M11.0296 2.44531H12.0022V1.77679C12.0022 1.30555 11.815 0.85362 11.4818 0.520408C11.1486 0.187196 10.6966 0 10.2254 0C9.75416 0 9.30223 0.187196 8.96902 0.520408C8.6358 0.85362 8.44861 1.30555 8.44861 1.77679V2.44531H11.0296Z" fill="#015D4F"/>
<path d="M10.2253 3.67837C10.4469 3.67837 10.6693 3.67973 10.8907 3.68245V2.97461H9.56V3.68245C9.78138 3.67973 10.0037 3.67837 10.2253 3.67837Z" fill="#015D4F"/>
<path d="M9.19494 12.7047H18.983C18.8478 8.19845 15.2646 4.48926 10.7493 4.22312C10.5138 4.20921 10.2722 4.20497 10.0331 4.21012C9.92183 4.21238 9.81099 4.21662 9.70166 4.22312C5.18561 4.48911 1.60287 8.19845 1.46783 12.7047H9.19494ZM4.97391 8.37295C4.63902 8.75415 4.3313 9.15839 4.05301 9.58268C3.91268 9.7962 3.77785 10.0154 3.64851 10.2403L3.55249 10.41C3.52104 10.4671 3.48973 10.5246 3.45722 10.5819C3.42471 10.6392 3.39462 10.6978 3.36271 10.756C3.33081 10.8142 3.30056 10.8732 3.26669 10.9315C3.27153 10.8647 3.27924 10.7982 3.28695 10.7313C3.29467 10.6645 3.30722 10.599 3.31886 10.5329C3.3305 10.4668 3.34608 10.4017 3.36014 10.3363C3.37421 10.271 3.39341 10.2063 3.4102 10.141C3.48291 9.88087 3.57625 9.62698 3.68934 9.38171C4.15037 8.39091 4.88674 7.55369 5.81059 6.96997C6.03921 6.82637 6.27888 6.70117 6.52735 6.59555C6.58995 6.5706 6.65195 6.54505 6.71455 6.521C6.77715 6.49696 6.84112 6.47564 6.90478 6.45492C6.96844 6.43421 7.03331 6.41621 7.09758 6.39791C7.16185 6.37962 7.22793 6.3657 7.29416 6.35255C7.24063 6.39368 7.18634 6.43209 7.13236 6.4705C7.07838 6.50891 7.0256 6.54883 6.97192 6.58663C6.91824 6.62444 6.86607 6.66466 6.81375 6.70337C6.76143 6.74208 6.70971 6.78185 6.65785 6.82087C6.45139 6.97823 6.25128 7.14003 6.05752 7.30627C5.67202 7.63627 5.30994 7.99269 4.97391 8.37295Z" fill="#015D4F"/>
<path d="M19.1388 13.2334H1.3121C0.964232 13.2338 0.630727 13.3722 0.384747 13.6181C0.138767 13.8641 0.000400216 14.1976 0 14.5455V14.9991H20.4509V14.5455C20.4505 14.1976 20.3121 13.8641 20.0661 13.6181C19.8202 13.3722 19.4867 13.2338 19.1388 13.2334Z" fill="#015D4F"/>
</svg>
