<svg width="199" height="117" viewBox="0 0 199 117" fill="none" xmlns="http://www.w3.org/2000/svg">
<path d="M87.124 14.4239C87.124 14.7597 87.124 15.1082 87.1621 15.4567C87.1937 15.97 87.2318 16.4578 87.2825 16.9394C87.3292 17.3904 87.399 17.8387 87.4915 18.2826C87.5659 18.6502 87.6719 19.0105 87.8083 19.3598C87.8674 19.5578 87.974 19.7383 88.1188 19.8857C88.287 20.0007 88.4733 20.0863 88.6701 20.1391C88.9299 20.2152 89.2657 20.2975 89.6712 20.3799C90.0767 20.4623 90.4885 20.5256 90.9004 20.589L92.0092 20.7347C92.3324 20.7728 92.5478 20.7981 92.6428 20.7981C92.7516 20.7979 92.8592 20.7764 92.9596 20.7347C93.0012 20.7186 93.0365 20.6896 93.0605 20.652C93.0844 20.6144 93.0957 20.5701 93.0927 20.5257C93.0962 20.4766 93.0869 20.4275 93.0658 20.3831C93.0447 20.3387 93.0125 20.3005 92.9723 20.2722C92.8206 20.2006 92.6577 20.1556 92.4908 20.1391C92.1505 20.0571 91.821 19.9359 91.5087 19.778C91.1484 19.6192 90.8149 19.4055 90.5202 19.1444C89.8442 18.5826 89.3666 17.8185 89.1579 16.9647C88.9452 15.9822 88.8411 14.9793 88.8475 13.9741C88.2553 14.069 87.6753 14.2284 87.1177 14.4493L87.124 14.4239ZM89.8042 9.83022C90.2453 8.95563 90.8156 8.15247 91.496 7.44782C92.4515 6.47734 93.5824 5.69687 94.8288 5.14779C97.8162 3.9184 101.168 3.9184 104.156 5.14779C105.405 5.69468 106.538 6.47537 107.495 7.44782C108.348 8.32469 109.022 9.36002 109.478 10.4955C109.89 11.5012 110.105 12.5767 110.112 13.6636C110.136 14.7681 110.032 15.8716 109.801 16.952C109.592 17.8058 109.115 18.57 108.439 19.1317C108.144 19.3928 107.811 19.6066 107.45 19.7653C107.138 19.9223 106.808 20.0434 106.468 20.1265C106.301 20.1429 106.138 20.1879 105.987 20.2595C105.946 20.2869 105.913 20.3249 105.891 20.3696C105.87 20.4142 105.862 20.4638 105.866 20.513C105.863 20.5575 105.875 20.6017 105.899 20.6393C105.923 20.677 105.958 20.706 105.999 20.7221C106.1 20.7637 106.208 20.7853 106.316 20.7854C106.418 20.7854 106.633 20.7854 106.95 20.7221L108.059 20.5763C108.464 20.513 108.876 20.4433 109.282 20.3672C109.687 20.2912 110.029 20.2025 110.289 20.1265C110.486 20.0737 110.672 19.988 110.84 19.873C110.985 19.7257 111.092 19.5451 111.151 19.3471C111.287 18.9979 111.393 18.6375 111.468 18.27C111.56 17.8261 111.63 17.3777 111.677 16.9267C111.727 16.4452 111.765 15.9573 111.797 15.444C111.829 14.9308 111.841 14.4429 111.841 13.9677C111.86 12.0629 111.613 10.1649 111.106 8.32855C110.61 6.62198 109.745 5.0452 108.572 3.70949C107.975 3.01134 107.284 2.39936 106.519 1.89102C105.82 1.42144 105.067 1.03846 104.276 0.750496C103.531 0.479266 102.76 0.283977 101.976 0.16758C100.294 -0.0558601 98.5893 -0.0558601 96.9071 0.16758C96.1227 0.283977 95.3521 0.479266 94.607 0.750496C93.816 1.03846 93.0628 1.42144 92.364 1.89102C91.599 2.39936 90.9081 3.01134 90.3111 3.70949C89.1385 5.0452 88.2734 6.62198 87.7767 8.32855C87.6246 8.85445 87.4979 9.39935 87.3902 9.95693C88.1695 9.86822 88.9489 9.8302 89.7282 9.81753L89.8042 9.83022Z" fill="#BD9A5F"/>
<path d="M90.5582 35.7525L91.591 35.7145C92.0979 35.6828 92.5921 35.6448 93.0736 35.5941C93.5247 35.5474 93.973 35.4776 94.4169 35.3851C94.7842 35.3126 95.1445 35.2087 95.494 35.0746C95.6911 35.0102 95.8709 34.9018 96.0199 34.7578C96.1361 34.5903 96.2219 34.4037 96.2734 34.2065C96.3494 33.9467 96.4318 33.6109 96.5078 33.2054C96.5839 32.7999 96.6599 32.3881 96.7169 31.9762C96.7739 31.5643 96.831 31.2032 96.869 30.8737C96.907 30.5442 96.926 30.3288 96.926 30.2401C96.9286 30.1338 96.9091 30.0281 96.869 29.9296C96.8531 29.8874 96.8244 29.8513 96.7869 29.8263C96.7494 29.8013 96.7049 29.7887 96.6599 29.7902C96.6109 29.7867 96.5618 29.796 96.5173 29.8171C96.4729 29.8382 96.4347 29.8704 96.4065 29.9106C96.3348 30.0623 96.2898 30.2252 96.2734 30.3922C96.1876 30.7333 96.0666 31.0645 95.9122 31.3806C95.752 31.7382 95.5384 32.0693 95.2786 32.3627C94.7169 33.0387 93.9528 33.5163 93.099 33.725C92.1165 33.9377 91.1136 34.0419 90.1083 34.0355C90.2025 34.6278 90.3618 35.2079 90.5835 35.7652L90.5582 35.7525ZM85.9645 33.0723C85.0899 32.6313 84.2867 32.061 83.5821 31.3806C82.6057 30.4286 81.8226 29.2969 81.2757 28.0478C80.0532 25.059 80.0532 21.7097 81.2757 18.7209C81.8226 17.4718 82.6057 16.3401 83.5821 15.3881C84.4577 14.5315 85.4932 13.8555 86.6298 13.3986C87.6364 12.9895 88.7113 12.7745 89.7978 12.765C90.9026 12.7422 92.0062 12.8486 93.0863 13.0818C93.9396 13.2879 94.7039 13.7633 95.2659 14.4377C95.527 14.7324 95.7408 15.0658 95.8995 15.4261C96.0539 15.7422 96.1749 16.0735 96.2607 16.4146C96.2768 16.5796 96.3219 16.7404 96.3938 16.8898C96.4211 16.931 96.4592 16.9639 96.5038 16.9851C96.5485 17.0063 96.598 17.015 96.6472 17.0102C96.6917 17.0132 96.736 17.0019 96.7736 16.978C96.8112 16.954 96.8402 16.9187 96.8563 16.8771C96.8963 16.7764 96.9157 16.6687 96.9133 16.5603C96.9133 16.4653 96.9133 16.2498 96.8563 15.9267C96.7993 15.6035 96.7676 15.2297 96.7042 14.8179C96.6409 14.406 96.5775 14.0005 96.4951 13.595C96.4341 13.2575 96.3559 12.9234 96.2607 12.5939C96.2092 12.3967 96.1235 12.2101 96.0073 12.0426C95.8606 11.8955 95.68 11.7867 95.4814 11.7258C95.1311 11.5923 94.771 11.4864 94.4042 11.409C93.9603 11.3165 93.512 11.2467 93.061 11.1999C92.5794 11.1492 92.0852 11.1112 91.5783 11.0795C91.0714 11.0479 90.5772 11.0352 90.102 11.0352C88.1972 11.0164 86.2991 11.2638 84.4628 11.7702C82.7541 12.2618 81.1763 13.1276 79.8437 14.3046C79.1441 14.8995 78.53 15.5882 78.0189 16.3512C77.5562 17.053 77.1757 17.8056 76.8848 18.5942C76.6106 19.3384 76.4152 20.1093 76.3018 20.8942C76.0784 22.5765 76.0784 24.2809 76.3018 25.9632C76.4144 26.7503 76.6098 27.5234 76.8848 28.2695C77.1757 29.0582 77.5562 29.8108 78.0189 30.5125C78.5333 31.273 79.147 31.9612 79.8437 32.5591C81.1763 33.7362 82.7541 34.6019 84.4628 35.0936C84.9887 35.2393 85.5336 35.366 86.0912 35.4738C86.0037 34.6974 85.9572 33.917 85.9518 33.1357L85.9645 33.0723Z" fill="#BD9A5F"/>
<path d="M111.867 32.2958C111.867 31.96 111.867 31.6178 111.829 31.263C111.797 30.7561 111.759 30.2619 111.708 29.7803C111.662 29.3293 111.592 28.881 111.499 28.4371C111.425 28.0696 111.319 27.7092 111.182 27.3599C111.124 27.1634 111.017 26.9848 110.872 26.8404C110.706 26.7216 110.519 26.6355 110.321 26.5869C109.992 26.4869 109.658 26.4066 109.32 26.3461C108.908 26.2638 108.502 26.1941 108.09 26.137C107.678 26.08 107.311 26.0293 106.988 25.985C106.665 25.9406 106.443 25.928 106.354 25.928C106.248 25.9254 106.142 25.9448 106.044 25.985C106.002 26.0009 105.965 26.0296 105.94 26.0671C105.915 26.1046 105.903 26.149 105.904 26.1941C105.9 26.2432 105.909 26.2925 105.93 26.337C105.952 26.3816 105.984 26.4197 106.025 26.4475C106.177 26.519 106.339 26.5661 106.506 26.5869C106.846 26.6664 107.176 26.7855 107.488 26.9417C107.848 27.1026 108.181 27.3161 108.477 27.5753C109.153 28.1371 109.63 28.9012 109.839 29.755C110.052 30.7396 110.156 31.7446 110.15 32.752C110.742 32.6527 111.321 32.4913 111.879 32.2704L111.867 32.2958ZM109.186 36.8895C108.746 37.7661 108.175 38.5713 107.495 39.2782C106.539 40.2487 105.408 41.0292 104.162 41.5782C101.173 42.8008 97.8238 42.8008 94.8351 41.5782C93.5865 41.0299 92.4534 40.2494 91.4959 39.2782C90.6442 38.3976 89.9708 37.3605 89.5127 36.2242C89.1025 35.2179 88.8875 34.1428 88.8791 33.0561C88.8554 31.9517 88.9596 30.8482 89.1896 29.7677C89.4007 28.9149 89.8779 28.1515 90.5518 27.588C90.848 27.3288 91.1811 27.1152 91.5403 26.9544C91.8548 26.798 92.1866 26.6789 92.5287 26.5996C92.6934 26.578 92.8537 26.531 93.004 26.4602C93.0456 26.4334 93.079 26.3954 93.1002 26.3506C93.1215 26.3058 93.1299 26.256 93.1243 26.2067C93.1255 26.1626 93.1134 26.1191 93.0897 26.0819C93.066 26.0446 93.0317 26.0153 92.9913 25.9976C92.8905 25.9577 92.7828 25.9383 92.6745 25.9406C92.5731 25.9406 92.364 25.9406 92.0408 25.9976C91.7177 26.0547 91.3439 26.0863 90.932 26.1497C90.5202 26.2131 90.1147 26.2764 89.7091 26.3588C89.3708 26.4185 89.0365 26.4989 88.708 26.5996C88.5084 26.6498 88.3196 26.7357 88.1504 26.853C88.0065 26.9986 87.9 27.1769 87.84 27.3726C87.7035 27.7218 87.5975 28.0822 87.5232 28.4497C87.4306 28.8936 87.3608 29.342 87.3141 29.793C87.2634 30.2745 87.2254 30.7688 87.1937 31.2757C87.162 31.7826 87.1493 32.2768 87.1493 32.7583C87.1305 34.661 87.3779 36.557 87.8843 38.3912C88.376 40.0998 89.2417 41.6777 90.4188 43.0102C91.0137 43.7099 91.7024 44.324 92.4654 44.835C93.1671 45.2977 93.9197 45.6783 94.7084 45.9692C95.4526 46.2434 96.2235 46.4387 97.0084 46.5521C98.6906 46.7756 100.395 46.7756 102.077 46.5521C102.864 46.4387 103.637 46.2434 104.384 45.9692C105.171 45.6795 105.922 45.2989 106.62 44.835C107.384 44.3227 108.075 43.7088 108.673 43.0102C109.849 41.6766 110.714 40.0991 111.208 38.3912C111.36 37.8653 111.487 37.3267 111.594 36.7691C110.817 36.8494 110.038 36.8937 109.256 36.9022L109.186 36.8895Z" fill="#BD9A5F"/>
<path d="M108.433 10.9907L107.4 11.0287C106.893 11.0604 106.399 11.0984 105.917 11.1491C105.466 11.1959 105.018 11.2657 104.574 11.3582C104.206 11.4326 103.846 11.5386 103.497 11.675C103.301 11.735 103.123 11.8415 102.977 11.9855C102.857 12.154 102.769 12.3429 102.717 12.5431C102.622 12.8725 102.544 13.2067 102.483 13.5442C102.401 13.9497 102.331 14.3615 102.274 14.7671C102.217 15.1726 102.16 15.5464 102.122 15.8759C102.084 16.2054 102.065 16.4145 102.065 16.5095C102.062 16.6179 102.082 16.7256 102.122 16.8263C102.138 16.8679 102.167 16.9032 102.204 16.9272C102.242 16.9511 102.286 16.9624 102.331 16.9594C102.38 16.9642 102.43 16.9555 102.474 16.9343C102.519 16.9131 102.557 16.8801 102.584 16.839C102.655 16.6892 102.7 16.5286 102.717 16.3638C102.803 16.0226 102.924 15.6914 103.079 15.3753C103.237 15.015 103.451 14.6816 103.712 14.3869C104.276 13.7129 105.039 13.2358 105.892 13.0246C106.875 12.815 107.877 12.7109 108.882 12.7141C108.788 12.122 108.628 11.5419 108.407 10.9844L108.433 10.9907ZM113.026 13.6709C113.901 14.112 114.704 14.6823 115.409 15.3626C116.388 16.317 117.176 17.4506 117.728 18.7018C118.95 21.6906 118.95 25.0399 117.728 28.0286C117.179 29.277 116.396 30.4084 115.421 31.3614C114.544 32.216 113.509 32.8918 112.374 33.351C111.367 33.7615 110.292 33.9766 109.206 33.9846C108.101 34.0083 106.998 33.9041 105.917 33.6741C105.063 33.4655 104.299 32.9879 103.738 32.3119C103.476 32.0172 103.263 31.6837 103.104 31.3234C102.949 31.0099 102.828 30.6807 102.743 30.3413C102.726 30.1744 102.681 30.0115 102.61 29.8598C102.581 29.8196 102.543 29.7873 102.499 29.7662C102.454 29.7451 102.405 29.7359 102.356 29.7394C102.311 29.7357 102.265 29.7475 102.227 29.7728C102.19 29.7981 102.161 29.8354 102.147 29.8788C102.107 29.9772 102.088 30.083 102.09 30.1893C102.09 30.2906 102.109 30.5018 102.147 30.8229C102.185 31.146 102.236 31.5198 102.299 31.9254C102.363 32.3309 102.426 32.7427 102.508 33.1546C102.591 33.5664 102.667 33.8959 102.743 34.1557C102.793 34.3544 102.881 34.5416 103.003 34.7069C103.147 34.8523 103.326 34.9591 103.522 35.0174C103.871 35.1538 104.232 35.2598 104.599 35.3342C105.043 35.4268 105.491 35.4965 105.942 35.5433C106.424 35.594 106.918 35.632 107.425 35.6637C107.932 35.6954 108.426 35.708 108.901 35.708C110.806 35.7268 112.704 35.4795 114.541 34.9731C116.249 34.4796 117.826 33.6141 119.16 32.4386C119.856 31.8407 120.47 31.1524 120.985 30.392C121.447 29.6902 121.828 28.9377 122.119 28.149C122.393 27.4027 122.588 26.6297 122.702 25.8426C122.925 24.1604 122.925 22.456 122.702 20.7737C122.588 19.9888 122.393 19.2179 122.119 18.4737C121.828 17.6851 121.447 16.9325 120.985 16.2307C120.473 15.4677 119.859 14.779 119.16 14.1841C117.827 13.0071 116.249 12.1413 114.541 11.6497C114.005 11.4948 113.461 11.3679 112.912 11.2695C113 12.0437 113.046 12.822 113.052 13.6012L113.026 13.6709Z" fill="#BD9A5F"/>
<path d="M98.694 22.5654L108.414 14.4551L100.303 24.1747L98.694 22.5654Z" fill="#BD9A5F"/>
<path d="M98.6939 24.1747L90.5836 14.4551L100.303 22.5654L98.6939 24.1747Z" fill="#BD9A5F"/>
<path d="M100.303 24.1709L90.5836 32.2749L98.6939 22.5615L100.303 24.1709Z" fill="#BD9A5F"/>
<path d="M100.303 22.5615L108.414 32.2749L98.694 24.1709L100.303 22.5615Z" fill="#BD9A5F"/>
<path fill-rule="evenodd" clip-rule="evenodd" d="M99.492 15.7432C99.5036 17.7561 100.308 19.6833 101.732 21.1067C103.155 22.5301 105.082 23.3349 107.095 23.3466C105.082 23.3565 103.154 24.1608 101.73 25.5846C100.306 27.0083 99.502 28.9365 99.492 30.9499C99.482 28.9365 98.6777 27.0083 97.254 25.5846C95.8302 24.1608 93.9021 23.3565 91.8886 23.3466C93.9016 23.3349 95.8287 22.5301 97.2521 21.1067C98.6755 19.6833 99.4804 17.7561 99.492 15.7432Z" fill="#BD9A5F"/>
<path d="M9.52497 78.0139C9.48744 80.0701 9.84004 82.1148 10.5641 84.0396C11.1787 85.6672 12.109 87.1573 13.3013 88.4242C14.4111 89.586 15.7513 90.5032 17.2361 91.1171C18.7047 91.7245 20.2786 92.0367 21.8678 92.0358C23.0404 92.0459 24.2041 91.8308 25.2957 91.4022C26.3643 90.9771 27.3654 90.3987 28.2673 89.6851C29.2183 88.9321 30.0889 88.0828 30.8651 87.1507C31.6762 86.2002 32.4555 85.2055 33.1968 84.1473L36.7958 86.7895C35.9804 88.0763 35.0402 89.2796 33.9889 90.3821C32.8867 91.5445 31.6486 92.5699 30.3012 93.4361C28.92 94.3277 27.4291 95.0369 25.8659 95.5461C24.2289 96.077 22.5179 96.3443 20.797 96.3381C17.961 96.366 15.1403 95.9184 12.4523 95.0138C10.0394 94.2052 7.80445 92.9404 5.86902 91.2882C4.03213 89.693 2.55859 87.7225 1.54776 85.5096C0.493219 83.1466 -0.0343345 80.5823 0.00173216 77.9949C-0.0275219 75.4609 0.473184 72.9488 1.47172 70.6196C2.41903 68.4226 3.81793 66.4495 5.57755 64.8284C7.44515 63.1532 9.62385 61.8615 11.9897 61.0267C14.6437 60.0866 17.4431 59.6233 20.2584 59.6581C22.1262 59.6377 23.9877 59.8766 25.7899 60.3677C27.3961 60.8111 28.9335 61.4742 30.3583 62.3383C31.7176 63.1601 32.9547 64.169 34.0332 65.3353C35.1173 66.5118 36.075 67.7988 36.8908 69.175L33.2665 71.7095C32.5304 70.6651 31.7239 69.6723 30.8525 68.7378C30.0092 67.8317 29.0774 67.0124 28.0709 66.292C27.1113 65.6098 26.0678 65.054 24.9662 64.6383C23.8835 64.225 22.7352 64.0104 21.5763 64.0047C20.0003 64.0002 18.4389 64.3081 16.9826 64.9108C15.5246 65.5142 14.2147 66.4265 13.1429 67.5846C11.9857 68.8606 11.0882 70.3499 10.5007 71.9692C9.81463 73.9091 9.48407 75.9567 9.52497 78.0139Z" fill="#BD9A5F"/>
<path d="M68.3498 59.7705H64.6241L47.5229 95.5761H53.3711L59.6059 82.7454L64.96 71.4164L70.1619 82.7454L76.0039 95.5761H84.8048L68.3498 59.7705Z" fill="#BD9A5F"/>
<path d="M97.1287 60.5044H112.19C114.057 60.4827 115.92 60.6956 117.734 61.1381C119.269 61.5049 120.733 62.1214 122.068 62.9629C123.213 63.6775 124.178 64.6468 124.887 65.7951C125.565 66.898 125.916 68.1697 125.901 69.4638C125.905 70.2408 125.814 71.0154 125.629 71.7701C125.443 72.4782 125.141 73.1506 124.735 73.7597C124.274 74.4288 123.722 75.0302 123.094 75.5465C122.298 76.1911 121.45 76.7696 120.56 77.2762C121.56 77.5902 122.516 78.031 123.405 78.5878C124.243 79.1034 124.997 79.7445 125.641 80.4887C126.265 81.2124 126.764 82.0346 127.118 82.9218C127.47 83.8242 127.649 84.7852 127.644 85.754C127.654 87.0967 127.33 88.4207 126.7 89.6064C126.044 90.8268 125.127 91.887 124.013 92.7111C122.744 93.6408 121.326 94.3459 119.818 94.7957C118.061 95.3211 116.235 95.5774 114.401 95.5561H97.1287V60.5044ZM105.746 75.7112H111.391C112.226 75.7269 113.056 75.5828 113.837 75.2867C114.519 75.0225 115.136 74.6165 115.649 74.0955C116.151 73.5746 116.536 72.9525 116.777 72.2707C117.039 71.5323 117.17 70.754 117.164 69.9707C117.177 69.1006 117.009 68.2373 116.669 67.4362C116.341 66.6892 115.834 66.0344 115.193 65.529C114.441 64.9423 113.579 64.5114 112.659 64.2618C111.461 63.9362 110.224 63.7826 108.984 63.8056H105.778L105.746 75.7112ZM105.746 91.9825H110.504C111.728 92.0071 112.948 91.8556 114.129 91.5326C115.046 91.2749 115.906 90.8448 116.663 90.2654C117.306 89.765 117.814 89.1115 118.139 88.3645C118.461 87.6073 118.622 86.792 118.615 85.9695C118.623 85.0411 118.475 84.1179 118.177 83.2386C117.884 82.4053 117.39 81.6568 116.739 81.0589C115.988 80.3867 115.096 79.8909 114.129 79.6079C112.847 79.2324 111.516 79.0572 110.181 79.0884H105.746V91.9825Z" fill="#BD9A5F"/>
<path d="M142.217 60.5029H150.802V95.5799H142.217V60.5029Z" fill="#BD9A5F"/>
<path d="M167.016 60.4993H180.208C182.219 60.4652 184.224 60.7039 186.171 61.2089C187.697 61.6023 189.137 62.277 190.416 63.1985C191.49 63.9966 192.359 65.0392 192.95 66.2399C193.521 67.4255 193.814 68.7257 193.806 70.0416C193.81 71.0159 193.612 71.9805 193.223 72.8738C192.825 73.7809 192.275 74.6126 191.594 75.3323C190.852 76.116 189.998 76.7864 189.06 77.3218C188.025 77.921 186.926 78.4034 185.784 78.7601L198.279 95.5509H188.927L177.154 79.7105H175.634V95.5509H167.016V60.4993ZM175.634 76.6375H177.49C178.483 76.6465 179.471 76.4989 180.417 76.2003C181.266 75.9304 182.056 75.5002 182.743 74.9331C183.392 74.3905 183.909 73.7082 184.257 72.9372C184.641 72.0945 184.831 71.1765 184.815 70.2506C184.823 69.3875 184.679 68.5295 184.39 67.7162C184.128 66.9781 183.728 66.2965 183.212 65.7076C182.709 65.1468 182.091 64.7015 181.399 64.4024C180.674 64.0883 179.89 63.9286 179.099 63.9335H175.608L175.634 76.6375Z" fill="#BD9A5F"/>
<path d="M39.3114 103.377H43.7467C44.9343 103.357 46.1198 103.485 47.2759 103.757C48.18 103.975 49.0228 104.395 49.7407 104.986C50.4627 105.588 51.0407 106.343 51.4321 107.198C51.8236 108.052 52.0185 108.983 52.0027 109.922C52.0077 110.83 51.8355 111.729 51.4958 112.571C51.1591 113.387 50.6514 114.122 50.0068 114.725C49.3048 115.37 48.4792 115.866 47.58 116.182C46.5197 116.554 45.4021 116.734 44.2789 116.715H39.2987L39.3114 103.377ZM41.5543 115.739H43.9367C44.661 115.743 45.38 115.616 46.0594 115.365C46.712 115.126 47.3045 114.748 47.7955 114.256C48.3042 113.743 48.7012 113.131 48.9613 112.457C49.2588 111.663 49.4029 110.82 49.3858 109.973C49.3945 109.199 49.2591 108.429 48.9867 107.705C48.7352 107.043 48.3514 106.439 47.8588 105.931C47.3651 105.442 46.7764 105.06 46.1291 104.809C45.4353 104.527 44.692 104.387 43.9431 104.397H41.548L41.5543 115.739Z" fill="#BD9A5F"/>
<path d="M73.3743 103.375V104.237H66.3411V109.008H71.0489V109.876H66.3411V115.851H73.3743V116.719H64.0918V103.413L73.3743 103.375Z" fill="#BD9A5F"/>
<path d="M85.0645 103.375H87.3139V115.845H94.0302V116.713H85.0645V103.375Z" fill="#BD9A5F"/>
<path d="M104.89 103.375H107.127V112.037C107.125 112.584 107.224 113.128 107.418 113.64C107.607 114.133 107.895 114.583 108.265 114.961C108.634 115.339 109.077 115.638 109.566 115.838C110.669 116.278 111.898 116.278 113.001 115.838C113.488 115.639 113.93 115.341 114.296 114.963C114.663 114.584 114.946 114.134 115.13 113.64C115.322 113.127 115.419 112.584 115.415 112.037V103.375H116.403V112.037C116.403 112.685 116.29 113.328 116.067 113.937C115.851 114.54 115.495 115.083 115.028 115.521C114.509 116.008 113.891 116.375 113.216 116.599C112.361 116.883 111.462 117.018 110.561 116.998C109.731 117.013 108.904 116.878 108.122 116.599C107.458 116.368 106.851 115.998 106.341 115.515C105.864 115.068 105.492 114.52 105.251 113.912C105.008 113.286 104.885 112.62 104.89 111.948V103.375Z" fill="#BD9A5F"/>
<path d="M128.239 116.713H127.061L132.687 110.136L127.555 103.375H130.223L134.094 108.495L138.46 103.375H139.644L134.639 109.23L140.341 116.713H137.655L133.22 110.871L128.239 116.713Z" fill="#BD9A5F"/>
<path d="M160.49 103.375V104.237H153.464V109.008H158.171V109.876H153.464V115.851H160.49V116.719H151.221V103.413L160.49 103.375Z" fill="#BD9A5F"/>
<path fill-rule="evenodd" clip-rule="evenodd" d="M146.519 46.7094C146.526 48.3754 147.192 49.9709 148.373 51.1465C149.553 52.3222 151.151 52.9823 152.817 52.9823C151.151 52.989 149.556 53.6555 148.38 54.8359C147.204 56.0163 146.544 57.6144 146.544 59.2804C146.528 57.6175 145.858 56.0278 144.68 54.8543C143.502 53.6808 141.909 53.0175 140.246 53.0076C141.91 52.991 143.501 52.3204 144.675 51.1408C145.848 49.9612 146.511 48.3672 146.519 46.7031V46.7094Z" fill="#BD9A5F"/>
<path fill-rule="evenodd" clip-rule="evenodd" d="M64.8649 83.0098C64.8815 84.6727 65.5512 86.2624 66.7295 87.4359C67.9077 88.6094 69.5001 89.2727 71.1631 89.2826C69.5002 89.2992 67.9105 89.9688 66.737 91.1471C65.5634 92.3254 64.9002 93.9178 64.8903 95.5807C64.8836 93.9147 64.2171 92.3193 63.0366 91.1436C61.8562 89.968 60.2581 89.3079 58.5921 89.3079C60.255 89.2913 61.8447 88.6216 63.0182 87.4434C64.1918 86.2651 64.855 84.6727 64.8649 83.0098Z" fill="#BD9A5F"/>
</svg>
