<svg width="34" height="34" viewBox="0 0 34 34" fill="none" xmlns="http://www.w3.org/2000/svg">
<path d="M34 17C34 26.4 26.4 34 17 34C7.59999 34 -6.63277e-06 26.4 -5.40011e-06 17C-4.16745e-06 7.6 7.6 9.9662e-07 17 2.22928e-06C26.4 3.46194e-06 34 7.6 34 17ZM1.99999 17C1.99999 25.3 8.69999 32 17 32C25.3 32 32 25.3 32 17C32 8.7 25.3 2 17 2C8.7 2 2 8.7 1.99999 17Z" fill="#015D4F"/>
<path d="M26.4 17.0002L16.7 26.7002L15.3 25.3002L23.6 17.0002L15.3 8.7002L16.7 7.30019L26.4 17.0002Z" fill="#015D4F"/>
<path d="M7.99999 18L7.99999 16L25 16L25 18L7.99999 18Z" fill="#015D4F"/>
</svg>
