<svg width="195" height="21" viewBox="0 0 195 21" fill="none" xmlns="http://www.w3.org/2000/svg">
<g clip-path="url(#clip0_17_147)">
<path d="M3.8147e-06 1.85254V15.5466L6.98201 20.9996L13.9726 15.5466V1.85254H3.8147e-06ZM10.9751 8.25577H8.95804V6.8585H5.00381V12.9378L6.98201 14.4819L8.95804 12.94V11.7651H10.9751V14.0889L6.98201 17.2095L2.98458 14.0889V4.83495H10.9751V8.25577Z" fill="#9F9F9F"/>
<path d="M16.7283 9.99078C16.7283 6.88959 18.9138 4.78613 22.1662 4.78613C24.4662 4.78613 26.8244 5.79683 27.1981 8.95849H24.4079C24.0947 7.83118 23.2697 7.30855 22.1662 7.30855C20.7365 7.30855 19.6222 8.38836 19.6222 9.99078C19.6222 11.5932 20.7365 12.6752 22.1662 12.6752C23.2697 12.6752 24.0947 12.1526 24.4079 11.0015H27.1981C26.8244 14.1869 24.4899 15.2019 22.1662 15.2019C18.9138 15.2019 16.7283 13.0985 16.7283 9.9951" fill="#9F9F9F"/>
<path d="M34.5753 11.2923L30.9385 13.4735L30.4504 14.8794H27.4421L31.0897 5.12012H35.18L38.8383 14.8794H35.8149L34.5753 11.2923ZM34.5753 11.2923L33.3897 7.8585H32.88L31.6944 11.2987L34.5753 11.2923Z" fill="#9F9F9F"/>
<path d="M49.6796 12.1181C49.6796 13.6989 48.576 14.8716 45.5763 14.8716H39.9181V5.1123H45.6929C48.5868 5.1123 49.4118 6.36704 49.4118 7.66712C49.4118 8.74692 48.8524 9.25875 48.116 9.63236V9.80513C49.0986 10.2716 49.6796 10.98 49.6796 12.1181ZM42.8379 7.35398V9.05143H45.4057C46.2695 9.05143 46.6129 8.69077 46.6129 8.2135C46.6129 7.73623 46.2652 7.34966 45.4057 7.34966L42.8379 7.35398ZM46.7252 11.6408C46.7252 11.1311 46.3538 10.7122 45.4942 10.7122H42.8379V12.6299H45.5029C46.3667 12.6299 46.7295 12.1418 46.7295 11.6408H46.7252Z" fill="#9F9F9F"/>
<path d="M51.0055 7.35352L53.921 9.3857V14.9856H51.0055V7.35352Z" fill="#9F9F9F"/>
<path d="M53.9253 8.03604L51.0099 6.006V5.03418H53.9253V8.03604Z" fill="#9F9F9F"/>
<path d="M62.3478 14.8716L60.9311 12.2217H58.2661V14.8716H55.3507V5.1123H60.7756C63.46 5.1123 64.935 6.29793 64.935 8.75988C64.9546 9.32649 64.8258 9.88838 64.5614 10.3899C64.297 10.8914 63.9062 11.3152 63.4276 11.6192L65.2179 14.8716H62.3478ZM58.2661 10.0189H60.5899C61.5207 10.0189 62.0195 9.58701 62.0195 8.77715C62.0195 7.9673 61.5207 7.53322 60.5899 7.53322H58.2661V10.0189Z" fill="#9F9F9F"/>
<path d="M75.841 14.9035H74.394L74.3703 13.489C73.6986 14.5083 72.4698 15.2274 70.7421 15.2274C67.7986 15.2274 65.5591 13.0959 65.5591 10.0444C65.5591 6.99286 67.7381 4.86133 70.9365 4.86133C73.0464 4.86133 75.178 5.84611 75.7006 8.29078H73.3855C73.014 7.40966 72.1329 6.86544 70.9624 6.86544C69.1548 6.86544 67.8332 8.17416 67.8332 10.053C67.8332 11.9319 69.1656 13.2384 70.9171 13.2384C71.8889 13.2384 73.2451 12.8065 73.582 11.338H70.7551V9.77443H75.841V14.9035Z" fill="#9F9F9F"/>
<path d="M84.4859 14.9035L82.8878 12.0053H79.7456V14.9035H77.4391V5.16797H82.5509C85.1575 5.16797 86.5375 6.38383 86.5375 8.65573C86.5591 9.24348 86.4153 9.82549 86.1225 10.3356C85.8296 10.8456 85.3995 11.2633 84.8811 11.541L86.7815 14.9035H84.4859ZM79.7348 10.2322H82.4321C83.6026 10.2322 84.2505 9.69882 84.2505 8.66869C84.2505 7.63856 83.6026 7.10297 82.4321 7.10297H79.7542L79.7348 10.2322Z" fill="#9F9F9F"/>
<path d="M88.0471 10.8456V5.16797H90.3773V10.7829C90.3773 12.3357 91.1548 13.273 92.7421 13.273C94.3294 13.273 95.1176 12.3357 95.1176 10.7829V5.16797H97.4414V10.8456C97.4414 13.8129 95.7504 15.2274 92.7486 15.2274C89.7467 15.2274 88.0471 13.8129 88.0471 10.8456Z" fill="#9F9F9F"/>
<path d="M98.9812 5.16797H104.069C106.661 5.16797 108.08 6.40758 108.08 8.7378C108.08 11.068 106.665 12.2947 104.069 12.2947H101.288V14.9035H98.9812V5.16797ZM103.92 10.351C105.054 10.351 105.762 9.8068 105.762 8.72916C105.762 7.65151 105.054 7.09434 103.92 7.09434H101.288V10.351H103.92Z" fill="#9F9F9F"/>
<path d="M124.572 8.79651L127.246 5.31738H129.943L126.6 9.31049L130.257 13.7485H127.425L124.572 10.0923V13.7485H122.385V5.32602H124.575L124.572 8.79651Z" fill="#9F9F9F"/>
<path d="M132.725 8.01172V11.2511C132.725 11.9595 133.066 12.3137 133.753 12.3137C134.44 12.3137 134.781 11.9595 134.781 11.2511V8.01172H136.805V11.6355C136.805 12.4087 136.55 12.9918 136.04 13.3783C135.53 13.7649 134.766 13.9593 133.753 13.9593C132.74 13.9593 131.978 13.7671 131.466 13.3783C130.954 12.9896 130.701 12.4087 130.701 11.6355V8.01172H132.725Z" fill="#9F9F9F"/>
<path d="M138.18 8.01222H140.204V8.95165C140.401 8.62818 140.673 8.35761 140.998 8.1634C141.332 7.97594 141.71 7.88124 142.093 7.88913H142.266C142.339 7.89084 142.411 7.89805 142.482 7.91072V9.85437C142.214 9.72115 141.918 9.65238 141.618 9.65353C141.422 9.63855 141.225 9.6685 141.042 9.74109C140.859 9.81369 140.695 9.92702 140.562 10.0725C140.304 10.4265 140.18 10.8601 140.21 11.297V13.7568H138.187L138.18 8.01222Z" fill="#9F9F9F"/>
<path d="M145.413 8.01172V11.2511C145.413 11.9595 145.756 12.3137 146.443 12.3137C147.13 12.3137 147.472 11.9595 147.471 11.2511V8.01172H149.494V11.6355C149.494 12.4087 149.24 12.9918 148.73 13.3783C148.22 13.7649 147.456 13.9593 146.443 13.9593C145.43 13.9593 144.666 13.7671 144.156 13.3783C143.646 12.9896 143.391 12.4087 143.391 11.6355V8.01172H145.413Z" fill="#9F9F9F"/>
<path d="M152.894 4.46777V13.7541H150.87V4.46777H152.894Z" fill="#9F9F9F"/>
<path d="M156.304 8.01172V11.2511C156.304 11.9595 156.646 12.3137 157.332 12.3137C158.017 12.3137 158.36 11.9595 158.362 11.2511V8.01172H160.394V11.6355C160.394 12.4087 160.137 12.9918 159.627 13.3783C159.118 13.7649 158.355 13.9593 157.34 13.9593C156.325 13.9593 155.565 13.7671 155.055 13.3783C154.546 12.9896 154.289 12.4087 154.289 11.6355V8.01172H156.304Z" fill="#9F9F9F"/>
<path d="M165.562 9.48924C165.225 9.30483 164.849 9.20479 164.465 9.19769C164.306 9.19039 164.148 9.2294 164.011 9.30999C163.958 9.34023 163.915 9.38396 163.884 9.4367C163.854 9.48945 163.838 9.54932 163.838 9.61017C163.837 9.66619 163.847 9.72193 163.866 9.7743C163.895 9.82443 163.938 9.865 163.99 9.89092C164.077 9.93706 164.171 9.9712 164.268 9.99242L164.756 10.1026C165.225 10.17 165.662 10.3786 166.009 10.7008C166.147 10.8481 166.254 11.0213 166.325 11.2103C166.396 11.3993 166.428 11.6005 166.421 11.8022C166.426 12.1161 166.357 12.4267 166.22 12.7092C166.088 12.9742 165.897 13.2054 165.661 13.3852C165.402 13.5805 165.109 13.7269 164.797 13.8171C164.437 13.9214 164.064 13.9723 163.689 13.9683C162.88 13.9595 162.088 13.7319 161.398 13.3096L162.134 11.8778C162.6 12.2309 163.162 12.4342 163.746 12.4609C163.907 12.4667 164.067 12.4238 164.203 12.3378C164.257 12.3051 164.302 12.2592 164.334 12.2044C164.365 12.1496 164.382 12.0877 164.383 12.0246C164.384 11.9616 164.374 11.8988 164.355 11.8389C164.329 11.7841 164.289 11.7376 164.238 11.705C164.156 11.6551 164.067 11.6173 163.974 11.5927C163.858 11.5603 163.707 11.5236 163.521 11.4869C162.895 11.3595 162.458 11.1716 162.208 10.9232C162.079 10.785 161.979 10.6221 161.915 10.4443C161.851 10.2665 161.823 10.0775 161.834 9.88876C161.83 9.59138 161.89 9.29663 162.011 9.02492C162.13 8.77206 162.306 8.55027 162.525 8.37704C162.767 8.18864 163.043 8.04793 163.337 7.9624C163.68 7.86171 164.036 7.81294 164.393 7.8177C165.027 7.8177 165.653 7.94322 166.238 8.18699L165.562 9.48924ZM164.914 15.1344L163.186 16.7671L162.268 16.1862L163.746 14.3851L164.914 15.1344Z" fill="#9F9F9F"/>
<path d="M169.464 8.01172V11.2511C169.464 11.9595 169.808 12.3137 170.494 12.3137C171.181 12.3137 171.524 11.9595 171.522 11.2511V8.01172H173.546V11.6355C173.546 12.4087 173.291 12.9918 172.781 13.3783C172.272 13.7649 171.507 13.9593 170.494 13.9593C169.481 13.9593 168.717 13.7671 168.207 13.3783C167.698 12.9896 167.443 12.4087 167.443 11.6355V8.01172H169.464Z" fill="#9F9F9F"/>
<path d="M179.357 4.46777H181.392V13.7541H179.357V13.1062C179.15 13.3717 178.883 13.5842 178.578 13.7262C178.273 13.8681 177.938 13.9354 177.602 13.9225C177.205 13.9272 176.813 13.847 176.45 13.6871C176.104 13.5345 175.792 13.3143 175.533 13.0392C175.269 12.7565 175.062 12.4259 174.924 12.0653C174.64 11.2988 174.64 10.4562 174.924 9.6897C175.055 9.33233 175.255 9.00379 175.511 8.72219C175.776 8.43634 176.098 8.20912 176.456 8.05514C176.814 7.90116 177.201 7.82383 177.591 7.82812C177.923 7.81932 178.254 7.88162 178.56 8.01086C178.867 8.14009 179.142 8.33328 179.368 8.5775L179.357 4.46777ZM176.807 10.8624C176.805 11.0408 176.838 11.2178 176.906 11.3828C176.971 11.5383 177.064 11.6804 177.18 11.8018C177.297 11.9234 177.439 12.019 177.595 12.0825C177.759 12.15 177.936 12.1838 178.113 12.1819C178.288 12.1832 178.461 12.1494 178.623 12.0825C178.779 12.019 178.919 11.9233 179.035 11.8018C179.152 11.6817 179.247 11.5421 179.316 11.3893C179.387 11.2312 179.424 11.0595 179.422 10.8861C179.423 10.7107 179.387 10.5369 179.316 10.3765C179.249 10.2211 179.153 10.0792 179.035 9.95749C178.919 9.83727 178.778 9.74243 178.623 9.6789C178.462 9.61195 178.289 9.57749 178.114 9.57749C177.94 9.57749 177.767 9.61195 177.606 9.6789C177.45 9.74245 177.309 9.83726 177.191 9.95749C177.076 10.077 176.982 10.215 176.913 10.3657C176.841 10.5213 176.805 10.691 176.807 10.8624Z" fill="#9F9F9F"/>
<path d="M184.797 8.01172V11.2511C184.797 11.9595 185.14 12.3137 185.825 12.3137C186.512 12.3137 186.853 11.9595 186.853 11.2511V8.01172H188.877V11.6355C188.877 12.4087 188.622 12.9918 188.112 13.3783C187.603 13.7649 186.838 13.9593 185.825 13.9593C184.813 13.9593 184.05 13.7671 183.538 13.3783C183.027 12.9896 182.774 12.4087 182.774 11.6355V8.01172H184.797Z" fill="#9F9F9F"/>
<path d="M190.246 8.01222H192.27V8.95165C192.467 8.62818 192.739 8.35761 193.064 8.1634C193.398 7.97594 193.776 7.88124 194.159 7.88913H194.334C194.407 7.89073 194.479 7.89795 194.55 7.91072V9.85437C194.282 9.72084 193.986 9.65206 193.686 9.65353C193.49 9.63902 193.292 9.66918 193.109 9.74173C192.926 9.81429 192.762 9.92736 192.628 10.0725C192.371 10.427 192.247 10.8602 192.276 11.297V13.7568H190.253L190.246 8.01222Z" fill="#9F9F9F"/>
<path d="M115.025 0H113.947V19.1471H115.025V0Z" fill="#9F9F9F"/>
</g>
<defs>
<clipPath id="clip0_17_147">
<rect width="194.552" height="21" fill="white"/>
</clipPath>
</defs>
</svg>
