<svg width="174" height="36" viewBox="0 0 174 36" fill="none" xmlns="http://www.w3.org/2000/svg">
<g clip-path="url(#clip0_5_85)">
<path d="M0.0548706 0.793335H1.92638V15.7569H6.55017V17.5076H0.0548706V0.793335Z" fill="#BD9A5F"/>
<path d="M32.2839 15.4558C31.0599 16.6739 29.4997 17.5037 27.8009 17.84C26.1022 18.1762 24.3412 18.004 22.741 17.3449C21.1408 16.6859 19.7733 15.5697 18.8117 14.1377C17.8501 12.7058 17.3377 11.0224 17.3392 9.30077C17.3093 8.154 17.5217 7.01374 17.9626 5.95358C18.4034 4.89342 19.063 3.9369 19.8988 3.14575C20.7046 2.33166 21.67 1.69067 22.7352 1.26247C23.8004 0.834276 24.9427 0.627988 26.0913 0.656389C27.2392 0.63441 28.3795 0.843636 29.4438 1.27146C30.5081 1.69929 31.4742 2.33686 32.2839 3.14575C33.9076 4.78793 34.8174 6.99829 34.8174 9.30077C34.8174 11.6032 33.9076 13.8136 32.2839 15.4558ZM30.9078 4.51353C30.2795 3.87246 29.5284 3.36295 28.6988 3.01505C27.8693 2.66715 26.978 2.48792 26.0776 2.48792C25.1772 2.48792 24.2859 2.66715 23.4563 3.01505C22.6267 3.36295 21.8756 3.87246 21.2474 4.51353C19.9744 5.82417 19.2629 7.57477 19.2629 9.39651C19.2629 11.2182 19.9744 12.9689 21.2474 14.2795C21.8795 14.9139 22.6318 15.4174 23.4609 15.7611C24.2899 16.1048 25.1793 16.2817 26.0776 16.2817C26.9759 16.2817 27.8652 16.1048 28.6943 15.7611C29.5234 15.4174 30.2757 14.9139 30.9078 14.2795C32.1937 12.9755 32.914 11.2224 32.914 9.39651C32.914 7.57061 32.1937 5.81749 30.9078 4.51353Z" fill="#BD9A5F"/>
<path d="M55.6503 2.57145H51.577V17.5076H49.5954V2.57145H45.5221V0.793335H55.5403L55.6503 2.57145Z" fill="#BD9A5F"/>
<path d="M70.1272 0.793335V11.0517C70.1272 11.6809 70.1272 12.1733 70.1272 12.5289C70.1765 12.9737 70.2973 13.4078 70.4849 13.8146C70.6902 14.3107 71.0109 14.7513 71.4207 15.1003C72.2078 15.7081 73.1762 16.0381 74.1729 16.0381C75.1697 16.0381 76.138 15.7081 76.9252 15.1003C77.335 14.7513 77.6557 14.3107 77.861 13.8146C78.0486 13.4078 78.1694 12.9737 78.2187 12.5289C78.2187 12.1733 78.2187 11.6809 78.2187 11.0517V0.793335H80.0903V11.5441C80.1623 12.9592 79.7974 14.3623 79.0444 15.5654C78.5007 16.271 77.7922 16.8344 76.9802 17.2067C76.119 17.6077 75.1789 17.8132 74.228 17.8085C73.2773 17.8105 72.3378 17.6051 71.4757 17.2067C70.6689 16.8384 69.9685 16.2739 69.4391 15.5654C68.6647 14.3705 68.2891 12.9634 68.3657 11.5441V0.793335H70.1272Z" fill="#BD9A5F"/>
<path d="M103.595 3.14599L102.108 4.10344C101.888 3.62431 101.558 3.20284 101.145 2.87243C100.597 2.46832 99.9285 2.25664 99.2459 2.27061C98.8738 2.25026 98.5014 2.30523 98.1514 2.43219C97.8013 2.55915 97.4808 2.75546 97.2093 3.00921C96.952 3.24454 96.7497 3.53302 96.6165 3.85439C96.4834 4.17576 96.4227 4.52221 96.4387 4.86939C96.4325 5.13963 96.4832 5.40817 96.5875 5.65783C96.6917 5.90748 96.8473 6.13276 97.0442 6.31924C97.5712 6.75771 98.166 7.10874 98.8056 7.35876L100.429 8.07C101.383 8.43517 102.26 8.97316 103.017 9.65663C103.419 10.0462 103.734 10.5153 103.943 11.0336C104.152 11.5519 104.248 12.1079 104.228 12.6657C104.256 13.3572 104.135 14.0466 103.874 14.6881C103.613 15.3297 103.218 15.9085 102.714 16.3861C102.209 16.8641 101.613 17.2364 100.96 17.4807C100.308 17.7251 99.6124 17.8366 98.9157 17.8086C98.2464 17.8399 97.5775 17.7374 96.9488 17.5071C96.32 17.2769 95.7441 16.9236 95.2552 16.4682C94.466 15.6514 93.9308 14.6255 93.7139 13.5138L95.5304 12.994C95.6181 13.7935 95.966 14.5427 96.5212 15.1278C96.8389 15.44 97.2179 15.6838 97.6346 15.8438C98.0514 16.0039 98.4968 16.0767 98.9432 16.0578C99.4048 16.0813 99.8663 16.0083 100.298 15.8433C100.729 15.6784 101.121 15.4253 101.448 15.1004C102.031 14.4555 102.346 13.6146 102.328 12.7478C102.342 12.3837 102.275 12.0211 102.133 11.6855C101.99 11.3499 101.775 11.0495 101.503 10.8056C100.882 10.3284 100.196 9.94148 99.4661 9.65663L97.9524 8.94538C97.1427 8.60664 96.3906 8.14524 95.7231 7.5776C95.3478 7.22794 95.051 6.8036 94.8518 6.33226C94.6526 5.86091 94.5556 5.35314 94.5671 4.84204C94.5461 4.25804 94.6534 3.67651 94.8816 3.13794C95.1097 2.59936 95.4533 2.11668 95.8882 1.72349C96.7286 1.02732 97.7675 0.610644 98.8586 0.532126C99.9497 0.453609 101.038 0.717205 101.971 1.2858C102.676 1.74317 103.238 2.38751 103.595 3.14599Z" fill="#BD9A5F"/>
<path d="M126.218 3.14596L124.732 4.10341C124.492 3.62834 124.155 3.20886 123.741 2.8724C123.194 2.46449 122.525 2.25238 121.842 2.27058C121.47 2.25023 121.097 2.3052 120.747 2.43216C120.397 2.55912 120.077 2.75543 119.805 3.00918C119.548 3.24451 119.346 3.53299 119.212 3.85436C119.079 4.17573 119.019 4.52218 119.035 4.86936C119.027 5.1424 119.079 5.41385 119.189 5.66443C119.298 5.91501 119.462 6.13856 119.668 6.31921C120.184 6.77221 120.782 7.12483 121.429 7.35873L123.025 8.06997C123.987 8.43552 124.873 8.97329 125.64 9.6566C126.033 10.0515 126.341 10.5222 126.545 11.0396C126.748 11.5571 126.843 12.1105 126.823 12.6657C126.85 13.3545 126.731 14.0412 126.475 14.6818C126.22 15.3225 125.832 15.9029 125.337 16.3861C124.826 16.8624 124.224 17.2333 123.568 17.4774C122.911 17.7216 122.212 17.8341 121.512 17.8086C120.846 17.8425 120.181 17.7411 119.556 17.5106C118.932 17.2801 118.361 16.9254 117.879 16.4682C117.072 15.6605 116.525 14.6318 116.31 13.5137L118.126 12.994C118.214 13.7935 118.562 14.5427 119.117 15.1277C119.435 15.44 119.814 15.6838 120.231 15.8438C120.647 16.0038 121.093 16.0767 121.539 16.0578C122.001 16.0813 122.462 16.0082 122.894 15.8433C123.325 15.6784 123.717 15.4253 124.044 15.1004C124.627 14.4555 124.942 13.6146 124.924 12.7478C124.938 12.3837 124.871 12.0211 124.729 11.6855C124.586 11.3499 124.371 11.0495 124.099 10.8055C123.478 10.3283 122.792 9.94145 122.062 9.6566L120.576 8.94535C119.755 8.61285 118.993 8.151 118.319 7.57757C117.944 7.22791 117.647 6.80357 117.448 6.33223C117.249 5.86088 117.152 5.35311 117.163 4.84201C117.14 4.27329 117.238 3.70608 117.451 3.17792C117.665 2.64975 117.989 2.17266 118.402 1.77818C119.333 0.960169 120.545 0.529238 121.787 0.574529C122.701 0.561629 123.598 0.813437 124.371 1.29921C125.143 1.78499 125.756 2.48371 126.135 3.31009L126.218 3.14596Z" fill="#BD9A5F"/>
<path d="M140.42 0.793346H143.475C144.982 0.683315 146.481 1.0993 147.713 1.96964C148.22 2.41593 148.619 2.96973 148.881 3.59004C149.143 4.21036 149.261 4.88131 149.227 5.55322C149.238 6.16854 149.128 6.78007 148.901 7.35276C148.674 7.92545 148.336 8.44805 147.906 8.89061C147.37 9.37758 146.739 9.7502 146.053 9.98545C145.366 10.2207 144.639 10.3136 143.915 10.2584H142.291V17.5076H140.42V0.793346ZM142.291 2.57147V8.50763H143.832C144.768 8.56562 145.691 8.27278 146.419 7.68696C146.74 7.41546 146.993 7.07452 147.16 6.69037C147.327 6.30623 147.403 5.88913 147.383 5.47116C147.383 3.52891 146.144 2.57147 143.667 2.57147H142.291Z" fill="#BD9A5F"/>
<path d="M171.823 17.5075L169.869 12.7203H162.713L160.704 17.4254H158.639L166.373 -0.0821533L173.887 17.4254L171.823 17.5075ZM163.566 11.0516H169.236L166.483 4.34946L163.566 11.0516Z" fill="#BD9A5F"/>
<path d="M86.6406 26.1246H88.7874C89.3624 26.1094 89.9367 26.1738 90.4938 26.3161C90.9292 26.4096 91.3353 26.6067 91.6772 26.8906C92.0154 27.1934 92.2952 27.5549 92.5029 27.9575C92.6911 28.3696 92.7851 28.818 92.7781 29.2705C92.7871 29.7031 92.7061 30.1329 92.5404 30.533C92.3746 30.933 92.1276 31.2949 91.8148 31.5958C91.4649 31.8926 91.064 32.1243 90.6314 32.2796C90.1174 32.452 89.5774 32.5353 89.0351 32.5259H86.6406V26.1246ZM87.714 32.0608H88.8699C89.2163 32.0644 89.5608 32.0089 89.8883 31.8967C90.2069 31.7734 90.4971 31.5873 90.7414 31.3496C90.9763 31.1033 91.1629 30.8157 91.2919 30.5015C91.4387 30.1171 91.5133 29.7091 91.5121 29.2979C91.5238 28.9239 91.4583 28.5515 91.3194 28.2037C91.1853 27.8922 90.9992 27.6055 90.769 27.3556C90.5374 27.1153 90.2555 26.9286 89.9433 26.8085C89.6039 26.6648 89.2389 26.5904 88.8699 26.5897H87.714V32.0608Z" fill="#BD9A5F"/>
<path d="M103.099 26.1248V26.5351H99.7138V28.833H101.888V29.1339H99.6037V32.0062H102.989V32.4165H98.5028V26.1248H103.099Z" fill="#BD9A5F"/>
<path d="M108.769 26.1248H109.842V32.1156H113.09V32.526H108.769V26.1248Z" fill="#BD9A5F"/>
<path d="M118.402 26.1248H119.502V30.2828C119.503 30.5441 119.55 30.8034 119.64 31.0488C119.717 31.2921 119.86 31.5097 120.053 31.6779C120.228 31.8692 120.445 32.0188 120.686 32.1156C120.948 32.224 121.228 32.2798 121.512 32.2798C121.795 32.2798 122.076 32.224 122.337 32.1156C122.579 32.0188 122.795 31.8692 122.97 31.6779C123.146 31.5005 123.278 31.2852 123.356 31.0488C123.468 30.8091 123.525 30.5472 123.521 30.2828V26.1248H123.906V30.2828C123.91 30.6004 123.854 30.9158 123.741 31.2129C123.636 31.5019 123.466 31.7636 123.246 31.9788C122.987 32.2054 122.689 32.3817 122.365 32.4986C121.949 32.6391 121.511 32.704 121.071 32.6901C120.668 32.6998 120.267 32.6349 119.888 32.4986C119.574 32.3786 119.285 32.2025 119.035 31.9788C118.812 31.76 118.634 31.4998 118.512 31.2129C118.39 30.9078 118.325 30.5835 118.319 30.2554L118.402 26.1248Z" fill="#BD9A5F"/>
<path d="M129.658 32.526H129.08L131.833 29.3801L129.411 26.1248H130.704L132.576 28.5868L134.695 26.1248H135.245L132.823 28.8603L135.576 32.4439H134.282L132.163 29.7083L129.658 32.526Z" fill="#BD9A5F"/>
<path d="M145.264 26.1248V26.5351H141.851V28.833H144.135V29.1339H141.851V32.0062H145.264V32.4165H140.777V26.1248H145.264Z" fill="#BD9A5F"/>
<path d="M45.5496 29.3253C45.5372 29.7171 45.6027 30.1075 45.7423 30.4742C45.8538 30.7907 46.032 31.0798 46.2652 31.3222C46.4875 31.5413 46.7488 31.7176 47.0358 31.842C47.3164 31.9513 47.6152 32.007 47.9165 32.0061C48.1349 32.0456 48.3587 32.0456 48.5771 32.0061C48.7753 31.9233 48.9607 31.8128 49.1275 31.6779C49.3214 31.5356 49.4971 31.3702 49.6504 31.1855C49.8103 31.0042 49.9574 30.8123 50.0908 30.611L50.7788 31.1307C50.6124 31.3717 50.4284 31.6003 50.2284 31.8146C50.0249 32.0347 49.7936 32.2278 49.5403 32.3891C49.27 32.5531 48.9843 32.6905 48.6871 32.7994C48.3641 32.887 48.0311 32.933 47.6963 32.9362C47.1543 32.941 46.6151 32.8579 46.1 32.69C45.6359 32.5362 45.206 32.2947 44.834 31.9788C44.4827 31.6774 44.201 31.3042 44.0083 30.8845C43.8054 30.428 43.7022 29.9338 43.7056 29.4347C43.7075 28.9537 43.8106 28.4785 44.0083 28.0396C44.1811 27.6229 44.4442 27.2493 44.779 26.9453C45.1435 26.6268 45.5631 26.3766 46.0175 26.2067C46.5319 26.0364 47.0716 25.9532 47.6138 25.9605C48.2878 25.958 48.9512 26.1275 49.5403 26.4529C49.8022 26.6138 50.0427 26.8068 50.2559 27.0274C50.4609 27.2507 50.6366 27.4989 50.7788 27.766L50.0908 28.2584C49.9659 28.0439 49.808 27.85 49.6229 27.6839C49.4693 27.5074 49.2936 27.3511 49.1 27.2189C48.9138 27.0831 48.7102 26.9727 48.4945 26.8906C48.2855 26.8493 48.0704 26.8493 47.8615 26.8906C47.5601 26.8898 47.2613 26.9454 46.9808 27.0548C46.7058 27.1859 46.4547 27.3615 46.2376 27.5745C46.0042 27.8119 45.8339 28.1033 45.7423 28.4225C45.6304 28.7114 45.5654 29.0161 45.5496 29.3253Z" fill="#BD9A5F"/>
<path d="M56.8064 25.851H56.0908L52.8156 32.6898H53.944L55.1275 30.2278L56.1733 28.0668L57.1642 30.2278L58.2926 32.6898H59.9714L56.8064 25.851Z" fill="#BD9A5F"/>
<path d="M62.3384 26.0153H65.2282C65.5754 25.9706 65.927 25.9706 66.2741 26.0153C66.5704 26.0783 66.851 26.1992 67.0998 26.3709C67.3208 26.5001 67.5091 26.6779 67.6503 26.8907C67.7814 27.1046 67.8483 27.3514 67.8429 27.6019C67.858 27.7474 67.858 27.8941 67.8429 28.0396C67.8168 28.1778 67.7605 28.3085 67.6778 28.4226L67.3751 28.7509L66.8796 29.0791C67.071 29.1537 67.2553 29.2452 67.4301 29.3527C67.5916 29.4407 67.7324 29.5619 67.8429 29.7083C67.9688 29.8458 68.0711 30.0029 68.1457 30.1734C68.1745 30.3546 68.1745 30.5392 68.1457 30.7205C68.147 30.9671 68.0904 31.2106 67.9805 31.4317C67.8526 31.668 67.6741 31.8734 67.4576 32.0336C67.2179 32.2095 66.9472 32.3394 66.6594 32.4165C66.323 32.5308 65.9691 32.5863 65.6136 32.5807H62.3109L62.3384 26.0153ZM63.9897 28.7509H65.0631C65.2175 28.7818 65.3766 28.7818 65.531 28.7509C65.6696 28.7152 65.7943 28.6389 65.8888 28.532C65.9778 28.4338 66.0519 28.3232 66.109 28.2038C66.2008 27.9004 66.2008 27.577 66.109 27.2737C66.0429 27.1296 65.9494 26.9996 65.8338 26.8907C65.679 26.7964 65.5125 26.7228 65.3384 26.6718C65.1021 26.6261 64.8591 26.6261 64.6228 26.6718H64.0173L63.9897 28.7509ZM63.9897 31.8694H64.898C65.1262 31.9012 65.3578 31.9012 65.5861 31.8694C65.7614 31.8095 65.9281 31.7267 66.0815 31.6232C66.1964 31.5243 66.29 31.4033 66.3567 31.2676C66.3851 31.1139 66.3851 30.9563 66.3567 30.8025C66.3854 30.6305 66.3854 30.4549 66.3567 30.2828C66.3079 30.1219 66.2121 29.9791 66.0815 29.8725C65.944 29.7388 65.7729 29.6443 65.5861 29.5989C65.3405 29.553 65.0885 29.553 64.8429 29.5989H63.9897V31.8694Z" fill="#BD9A5F"/>
<path d="M70.9803 26.0153H72.6317V32.69H70.9803V26.0153Z" fill="#BD9A5F"/>
<path d="M75.7142 26.0151H78.2463C78.6292 25.9548 79.0193 25.9548 79.4023 26.0151C79.69 26.078 79.9617 26.199 80.2004 26.3708C80.4157 26.5248 80.5866 26.7323 80.6958 26.9726C80.8057 27.1937 80.8623 27.4372 80.8609 27.6838C80.9022 27.8639 80.9022 28.0509 80.8609 28.2309C80.7761 28.3957 80.6747 28.5516 80.5582 28.696C80.3561 28.8804 80.1233 29.0285 79.8701 29.1337L79.2371 29.4072L81.6316 32.6078H79.8701L77.6133 29.5714H77.3106V32.6899H75.6592L75.7142 26.0151ZM77.3656 29.079H77.7234C77.915 29.1074 78.1097 29.1074 78.3013 29.079C78.4619 29.0241 78.6111 28.9406 78.7417 28.8328C78.8636 28.723 78.966 28.5935 79.0444 28.4498C79.0754 28.2779 79.0754 28.1019 79.0444 27.93C79.0595 27.7754 79.0595 27.6196 79.0444 27.465C78.9951 27.3189 78.91 27.1873 78.7968 27.082C78.7123 26.9706 78.5978 26.8852 78.4665 26.8358C78.3221 26.7987 78.1705 26.7987 78.0261 26.8358H77.3381L77.3656 29.079Z" fill="#BD9A5F"/>
<path fill-rule="evenodd" clip-rule="evenodd" d="M71.8061 23.3892C71.8061 23.546 71.8376 23.7012 71.8988 23.8457C71.96 23.9902 72.0496 24.1211 72.1624 24.2307C72.2753 24.3403 72.409 24.4264 72.5558 24.4839C72.7025 24.5414 72.8594 24.5691 73.0171 24.5654C72.6959 24.5654 72.3879 24.6923 72.1608 24.918C71.9337 25.1437 71.8061 25.4499 71.8061 25.7691C71.8061 25.4499 71.6786 25.1437 71.4514 24.918C71.2243 24.6923 70.9163 24.5654 70.5952 24.5654C70.9116 24.5655 71.2155 24.4425 71.4418 24.2226C71.6682 24.0028 71.799 23.7036 71.8061 23.3892Z" fill="#BD9A5F"/>
<path fill-rule="evenodd" clip-rule="evenodd" d="M56.1458 30.2826C56.1458 30.6018 56.2734 30.908 56.5005 31.1337C56.7276 31.3594 57.0356 31.4863 57.3568 31.4863C57.0356 31.4863 56.7276 31.6131 56.5005 31.8388C56.2734 32.0645 56.1458 32.3707 56.1458 32.6899C56.1458 32.3754 56.022 32.0733 55.8009 31.8483C55.5797 31.6234 55.2787 31.4934 54.9623 31.4863C55.2787 31.4791 55.5797 31.3491 55.8009 31.1242C56.022 30.8992 56.1458 30.5971 56.1458 30.2826Z" fill="#BD9A5F"/>
<path d="M35.2287 29.3524C35.2145 30.2622 34.8445 31.1307 34.1972 31.7741C33.55 32.4175 32.6762 32.7851 31.7609 32.7993C31.2307 32.7898 30.7146 32.6283 30.2746 32.3342V32.6898H29.3664V26.5348C29.3664 24.6746 28.8985 23.7992 28.0453 23.7992C27.6194 23.818 27.1958 23.8729 26.7793 23.9634V23.1154C27.6615 23.2323 28.4825 23.6277 29.1217 24.2433C29.7608 24.8589 30.1843 25.6621 30.3297 26.5348C30.3297 26.6989 30.3297 27.1913 30.3297 27.1913V27.6838C30.6015 27.3021 30.9599 26.9893 31.3759 26.7707C31.7918 26.5521 32.2537 26.4338 32.7241 26.4254C33.4449 26.4881 34.1118 26.8305 34.5805 27.3783C35.0492 27.9261 35.2821 28.6353 35.2287 29.3524ZM34.348 29.7901C34.348 28.395 33.5773 26.9178 32.0911 26.9178C31.7293 26.9313 31.3759 27.0302 31.0601 27.2062C30.7442 27.3821 30.475 27.6302 30.2746 27.93V31.4041C30.577 31.7573 30.9405 32.0537 31.348 32.2795C31.637 32.4313 31.9571 32.5155 32.2838 32.5257C32.6389 32.5321 32.9896 32.4473 33.3021 32.2795C33.678 31.9898 33.9719 31.6081 34.1552 31.1719C34.3385 30.7356 34.4049 30.2595 34.348 29.7901Z" fill="#BD9A5F"/>
<path d="M41.0085 26.7537L40.8158 27.2188L40.2928 28.5045L39.9901 29.2705V29.5714L39.1645 31.5683V31.7872V32.006L38.9443 32.5805L38.614 33.3465L38.4213 33.8115C38.2911 34.0988 38.1345 34.3735 37.9535 34.6322C37.8575 34.7629 37.7466 34.8823 37.6232 34.9878C37.2228 35.4525 36.6644 35.7543 36.0544 35.8358C35.7219 35.8404 35.3957 35.745 35.1187 35.5623L35.7241 34.9878C35.8415 35.0981 35.9799 35.184 36.1311 35.2404C36.2824 35.2968 36.4434 35.3225 36.6048 35.3161C36.9604 35.2796 37.2964 35.1365 37.5681 34.9057L37.7608 34.7142C38.0648 34.3251 38.3063 33.8913 38.4764 33.4285L38.8067 32.6079L36.0544 26.7537V26.5623H36.9627L39.3846 31.5136L40.1002 29.7629L40.5681 28.6413V28.3404C40.5813 28.2313 40.5813 28.1211 40.5681 28.0121C40.5497 27.6068 40.4944 27.2039 40.403 26.8085H41.2837L41.0085 26.7537Z" fill="#BD9A5F"/>
</g>
<defs>
<clipPath id="clip0_5_85">
<rect width="173.887" height="36" fill="white"/>
</clipPath>
</defs>
</svg>
