<svg width="173" height="23" viewBox="0 0 173 23" fill="none" xmlns="http://www.w3.org/2000/svg">
<path fill-rule="evenodd" clip-rule="evenodd" d="M85.5 3C85.513 5.25033 86.4127 7.40479 88.0039 8.99604C89.5952 10.5873 91.7497 11.487 94 11.5C91.7491 11.5112 89.5936 12.4103 88.0019 14.002C86.4103 15.5936 85.5112 17.7491 85.5 20C85.4888 17.7491 84.5897 15.5936 82.9981 14.002C81.4064 12.4103 79.2509 11.5112 77 11.5C79.2503 11.487 81.4048 10.5873 82.996 8.99604C84.5872 7.40479 85.487 5.25033 85.5 3Z" fill="#BD9A5F" fill-opacity="0.35"/>
<path fill-rule="evenodd" clip-rule="evenodd" d="M105.5 3C105.513 5.25033 106.413 7.40479 108.004 8.99604C109.595 10.5873 111.75 11.487 114 11.5C111.749 11.5112 109.594 12.4103 108.002 14.002C106.41 15.5936 105.511 17.7491 105.5 20C105.489 17.7491 104.59 15.5936 102.998 14.002C101.406 12.4103 99.2509 11.5112 97 11.5C99.2503 11.487 101.405 10.5873 102.996 8.99604C104.587 7.40479 105.487 5.25033 105.5 3Z" fill="#BD9A5F" fill-opacity="0.35"/>
<path fill-rule="evenodd" clip-rule="evenodd" d="M125.5 3C125.513 5.25033 126.413 7.40479 128.004 8.99604C129.595 10.5873 131.75 11.487 134 11.5C131.749 11.5112 129.594 12.4103 128.002 14.002C126.41 15.5936 125.511 17.7491 125.5 20C125.489 17.7491 124.59 15.5936 122.998 14.002C121.406 12.4103 119.251 11.5112 117 11.5C119.25 11.487 121.405 10.5873 122.996 8.99604C124.587 7.40479 125.487 5.25033 125.5 3Z" fill="#BD9A5F"/>
<path fill-rule="evenodd" clip-rule="evenodd" d="M145.5 3C145.513 5.25033 146.413 7.40479 148.004 8.99604C149.595 10.5873 151.75 11.487 154 11.5C151.749 11.5112 149.594 12.4103 148.002 14.002C146.41 15.5936 145.511 17.7491 145.5 20C145.489 17.7491 144.59 15.5936 142.998 14.002C141.406 12.4103 139.251 11.5112 137 11.5C139.25 11.487 141.405 10.5873 142.996 8.99604C144.587 7.40479 145.487 5.25033 145.5 3Z" fill="#BD9A5F" fill-opacity="0.35"/>
<path d="M166.071 18.9981C165.821 18.9986 165.579 18.9116 165.387 18.7522C165.278 18.6624 165.189 18.5522 165.123 18.4278C165.058 18.3035 165.017 18.1674 165.005 18.0273C164.992 17.8873 165.006 17.7461 165.048 17.6118C165.09 17.4776 165.158 17.3528 165.248 17.2448L170.037 11.5147L165.419 5.77382C165.33 5.66447 165.264 5.53865 165.224 5.40358C165.184 5.26852 165.171 5.12688 165.186 4.9868C165.201 4.84672 165.243 4.71097 165.311 4.58735C165.378 4.46373 165.469 4.35467 165.579 4.26645C165.69 4.16913 165.819 4.09572 165.96 4.05083C166.1 4.00594 166.248 3.99054 166.395 4.0056C166.541 4.02066 166.683 4.06584 166.811 4.13833C166.94 4.21081 167.051 4.30903 167.14 4.42681L172.304 10.8412C172.461 11.0324 172.547 11.2724 172.547 11.52C172.547 11.7676 172.461 12.0076 172.304 12.1989L166.958 18.6132C166.851 18.7426 166.715 18.8448 166.561 18.9117C166.406 18.9786 166.239 19.0082 166.071 18.9981Z" fill="#BD9A5F"/>
<path d="M64.4758 4.00193C64.7256 4.00145 64.9677 4.08844 65.16 4.24782C65.2682 4.33756 65.3577 4.44778 65.4233 4.57217C65.4889 4.69655 65.5293 4.83265 65.5422 4.97267C65.5551 5.11269 65.5403 5.25388 65.4986 5.38816C65.4568 5.52244 65.389 5.64716 65.299 5.75519L60.5096 11.4853L65.1279 17.2262C65.2167 17.3355 65.283 17.4614 65.3231 17.5964C65.3631 17.7315 65.376 17.8731 65.3611 18.0132C65.3462 18.1533 65.3038 18.289 65.2362 18.4127C65.1687 18.5363 65.0774 18.6453 64.9676 18.7336C64.857 18.8309 64.7274 18.9043 64.5871 18.9492C64.4468 18.9941 64.2987 19.0095 64.1521 18.9944C64.0056 18.9793 63.8637 18.9342 63.7354 18.8617C63.6072 18.7892 63.4953 18.691 63.4067 18.5732L58.2432 12.1588C58.086 11.9676 58 11.7276 58 11.48C58 11.2324 58.086 10.9924 58.2432 10.8011L63.5885 4.38679C63.6957 4.25742 63.832 4.15515 63.9861 4.08828C64.1403 4.02141 64.3081 3.99183 64.4758 4.00193Z" fill="#BD9A5F"/>
<path d="M6.894 18V15.426H0.522V13.23L5.346 5.4H8.784V13.752H10.908V15.426H8.784V18H6.894ZM2.358 13.752H6.894V6.588H6.606L2.358 13.5V13.752ZM14.5239 21.6L19.8159 5.4H21.6699L16.3779 21.6H14.5239ZM29.4442 18V6.732H29.1562L27.0862 10.98H25.0882L27.8782 5.4H31.3342V18H29.4442ZM36.8345 18V16.578C36.8345 15.702 36.9785 14.982 37.2665 14.418C37.5665 13.854 37.9985 13.398 38.5625 13.05C39.1265 12.69 39.8045 12.39 40.5965 12.15L41.6945 11.808C42.4265 11.58 43.0025 11.262 43.4225 10.854C43.8545 10.434 44.0705 9.87 44.0705 9.162V9.09C44.0705 8.406 43.8305 7.86 43.3505 7.452C42.8705 7.044 42.2405 6.84 41.4605 6.84C40.6565 6.84 40.0025 7.056 39.4985 7.488C39.0065 7.92 38.7605 8.556 38.7605 9.396V9.684H36.8885V9.414C36.8885 8.514 37.0865 7.746 37.4825 7.11C37.8905 6.474 38.4365 5.988 39.1205 5.652C39.8165 5.316 40.5965 5.148 41.4605 5.148C42.3245 5.148 43.0925 5.31 43.7645 5.634C44.4485 5.958 44.9825 6.414 45.3665 7.002C45.7625 7.59 45.9605 8.274 45.9605 9.054V9.234C45.9605 10.05 45.7985 10.728 45.4745 11.268C45.1505 11.808 44.7005 12.258 44.1245 12.618C43.5605 12.966 42.9065 13.254 42.1625 13.482L41.1005 13.806C40.2605 14.07 39.6545 14.364 39.2825 14.688C38.9225 15 38.7425 15.48 38.7425 16.128V16.308H45.8525V18H36.8345Z" fill="#BD9A5F"/>
</svg>
