<svg width="21" height="15" viewBox="0 0 21 15" fill="none" xmlns="http://www.w3.org/2000/svg">
<path d="M11.0296 2.44531H12.0022V1.77679C12.0022 1.30555 11.815 0.85362 11.4818 0.520408C11.1486 0.187196 10.6966 0 10.2254 0C9.75416 0 9.30223 0.187196 8.96902 0.520408C8.6358 0.85362 8.44861 1.30555 8.44861 1.77679V2.44531H11.0296Z" fill="white"/>
<path d="M10.2253 3.67831C10.4469 3.67831 10.6693 3.67967 10.8907 3.68239V2.97455H9.56V3.68239C9.78138 3.67967 10.0037 3.67831 10.2253 3.67831Z" fill="white"/>
<path d="M9.19494 12.7046H18.983C18.8478 8.19832 15.2646 4.48914 10.7493 4.223C10.5138 4.20909 10.2722 4.20485 10.0331 4.20999C9.92183 4.21226 9.81099 4.2165 9.70166 4.223C5.18561 4.48899 1.60287 8.19832 1.46783 12.7046H9.19494ZM4.97391 8.37283C4.63902 8.75403 4.3313 9.15827 4.05301 9.58256C3.91268 9.79608 3.77785 10.0153 3.64851 10.2402L3.55249 10.4099C3.52104 10.467 3.48973 10.5245 3.45722 10.5818C3.42471 10.6391 3.39462 10.6976 3.36271 10.7558C3.33081 10.8141 3.30056 10.873 3.26669 10.9314C3.27153 10.8646 3.27924 10.798 3.28695 10.7312C3.29467 10.6644 3.30722 10.5989 3.31886 10.5328C3.3305 10.4667 3.34608 10.4015 3.36014 10.3362C3.37421 10.2709 3.39341 10.2062 3.4102 10.1408C3.48291 9.88074 3.57625 9.62685 3.68934 9.38159C4.15037 8.39079 4.88674 7.55357 5.81059 6.96984C6.03921 6.82624 6.27888 6.70105 6.52735 6.59543C6.58995 6.57048 6.65195 6.54493 6.71455 6.52088C6.77715 6.49684 6.84112 6.47552 6.90478 6.4548C6.96844 6.43408 7.03331 6.41609 7.09758 6.39779C7.16185 6.37949 7.22793 6.36558 7.29416 6.35243C7.24063 6.39356 7.18634 6.43197 7.13236 6.47038C7.07838 6.50878 7.0256 6.54871 6.97192 6.58651C6.91824 6.62431 6.86607 6.66454 6.81375 6.70325C6.76143 6.74196 6.70971 6.78173 6.65785 6.82074C6.45139 6.97811 6.25128 7.13991 6.05752 7.30615C5.67202 7.63615 5.30994 7.99257 4.97391 8.37283Z" fill="white"/>
<path d="M19.1388 13.2338H1.3121C0.964232 13.2342 0.630727 13.3726 0.384747 13.6186C0.138767 13.8646 0.000400216 14.1981 0 14.5459V14.9996H20.4509V14.5459C20.4505 14.1981 20.3121 13.8646 20.0661 13.6186C19.8202 13.3726 19.4867 13.2342 19.1388 13.2338Z" fill="white"/>
</svg>
