<svg width="41" height="12" viewBox="0 0 41 12" fill="none" xmlns="http://www.w3.org/2000/svg">
<path d="M41 11.1471C41 11.6186 40.0857 12 38.9602 12L22.5397 12C21.9988 12 21.4799 11.9101 21.0974 11.7502C20.7149 11.5903 20.5 11.3733 20.5 11.1471C20.5 10.9209 20.7149 10.704 21.0974 10.5441C21.4799 10.3841 21.9988 10.2943 22.5397 10.2943L38.9602 10.2943C39.5012 10.2943 40.02 10.3841 40.4026 10.5441C40.7851 10.704 41 10.921 41 11.1471Z" fill="white"/>
<path d="M41 6C41 6.47143 40.0857 6.85286 38.9602 6.85286L2.03971 6.85286C1.49873 6.85286 0.979912 6.763 0.597385 6.60306C0.214855 6.44312 -4.57216e-05 6.22619 -4.57018e-05 6C-4.5682e-05 5.77381 0.214855 5.55688 0.597386 5.39694C0.979912 5.237 1.49873 5.14714 2.03971 5.14714L38.9602 5.14715C39.5012 5.14715 40.02 5.237 40.4026 5.39694C40.7851 5.55688 41 5.77381 41 6Z" fill="white"/>
<path d="M38.9602 1.70571C39.5012 1.70571 40.02 1.61586 40.4026 1.45592C40.7851 1.29597 41 1.07905 41 0.852855C41 0.626663 40.7851 0.409736 40.4026 0.249794C40.02 0.0898522 39.5012 -2.75363e-06 38.9602 -2.80093e-06L14.3397 -4.95332e-06C13.7987 -5.00061e-06 13.2799 0.0898499 12.8974 0.249792C12.5149 0.409733 12.3 0.626661 12.3 0.852853C12.3 1.07904 12.5149 1.29597 12.8974 1.45591C13.2799 1.61586 13.7987 1.70571 14.3397 1.70571L38.9602 1.70571Z" fill="white"/>
</svg>
